<svg xmlns="http://www.w3.org/2000/svg" width="372" height="229" viewBox="0 0 372 229">
  <g id="Grupo_1108408" data-name="Grupo 1108408" transform="translate(-390 -2426.269)">
    <g id="Elipse_11579" data-name="Elipse 11579" transform="translate(390 2426.269)" fill="#bacbec" stroke="#bacbec" stroke-width="1">
      <ellipse cx="88.5" cy="88" rx="88.5" ry="88" stroke="none"/>
      <ellipse cx="88.5" cy="88" rx="88" ry="87.5" fill="none"/>
    </g>
    <g id="Elipse_11580" data-name="Elipse 11580" transform="translate(585 2479.269)" fill="#bacbec" stroke="#bacbec" stroke-width="1">
      <ellipse cx="88.5" cy="88" rx="88.5" ry="88" stroke="none"/>
      <ellipse cx="88.5" cy="88" rx="88" ry="87.5" fill="none"/>
    </g>
    <path id="Trazado_898762" data-name="Trazado 898762" d="M-7767.771-9075.144l-38.711-14.836,4.294-11.205,38.711,14.836Z" transform="translate(8360.509 11627.911)" fill="#bacbec"/>
    <path id="Trazado_898797" data-name="Trazado 898797" d="M1.073,0V-9.242H3.682a4.2,4.2,0,0,1,2.133.533A3.606,3.606,0,0,1,7.246-7.192a4.938,4.938,0,0,1,.511,2.26v.59a4.955,4.955,0,0,1-.5,2.292A3.55,3.55,0,0,1,5.811-.54,4.467,4.467,0,0,1,3.631,0ZM2.292-8.246V-1H3.574a2.79,2.79,0,0,0,2.193-.877,3.622,3.622,0,0,0,.784-2.5v-.54a3.68,3.68,0,0,0-.74-2.449,2.632,2.632,0,0,0-2.1-.886ZM12.264.127A3,3,0,0,1,9.991-.79a3.4,3.4,0,0,1-.876-2.453v-.216a4.121,4.121,0,0,1,.39-1.825A3.045,3.045,0,0,1,10.6-6.541,2.745,2.745,0,0,1,12.118-7a2.572,2.572,0,0,1,2.082.882,3.82,3.82,0,0,1,.743,2.526V-3.1H10.29a2.441,2.441,0,0,0,.594,1.641,1.866,1.866,0,0,0,1.444.625,2.045,2.045,0,0,0,1.054-.254,2.648,2.648,0,0,0,.755-.673l.717.559A2.884,2.884,0,0,1,12.264.127ZM12.118-6.03a1.566,1.566,0,0,0-1.193.517,2.515,2.515,0,0,0-.6,1.45h3.44v-.089a2.237,2.237,0,0,0-.482-1.387A1.475,1.475,0,0,0,12.118-6.03ZM20.795,0H19.621V-9.75h1.174Zm6.119,0a2.467,2.467,0,0,1-.165-.724,2.62,2.62,0,0,1-1.955.851,2.424,2.424,0,0,1-1.666-.574A1.859,1.859,0,0,1,22.477-1.9a1.942,1.942,0,0,1,.816-1.666,3.846,3.846,0,0,1,2.295-.594H26.73V-4.7a1.319,1.319,0,0,0-.368-.981,1.48,1.48,0,0,0-1.085-.365,1.712,1.712,0,0,0-1.054.317.935.935,0,0,0-.425.768H22.617a1.621,1.621,0,0,1,.365-.993,2.491,2.491,0,0,1,.99-.759A3.331,3.331,0,0,1,25.346-7a2.715,2.715,0,0,1,1.86.594,2.141,2.141,0,0,1,.7,1.635v3.161a3.865,3.865,0,0,0,.241,1.5V0ZM24.965-.9a2.064,2.064,0,0,0,1.047-.286,1.728,1.728,0,0,0,.717-.743V-3.333h-.92q-2.158,0-2.158,1.263a1.069,1.069,0,0,0,.368.863A1.415,1.415,0,0,0,24.965-.9Zm8.392.9V-5.96H32.271v-.908h1.085v-.584a2.386,2.386,0,0,1,.657-1.79,2.548,2.548,0,0,1,1.857-.641,5.591,5.591,0,0,1,1.8.387l-.2.99a4.069,4.069,0,0,0-1.511-.317,1.478,1.478,0,0,0-1.089.34,1.4,1.4,0,0,0-.333,1.019v.6h1.4v.908h-1.4V0Zm4.894,0H37.07V-6.868h1.181Zm1.631-3.491a4.037,4.037,0,0,1,.743-2.555A2.375,2.375,0,0,1,42.593-7a2.363,2.363,0,0,1,1.961.889l.057-.762h1.073v6.7a2.794,2.794,0,0,1-.79,2.1,2.916,2.916,0,0,1-2.123.768,3.532,3.532,0,0,1-1.454-.317,2.5,2.5,0,0,1-1.085-.87l.609-.7a2.3,2.3,0,0,0,1.847.933,1.8,1.8,0,0,0,1.336-.482A1.844,1.844,0,0,0,44.5-.1v-.59A2.414,2.414,0,0,1,42.58.127a2.346,2.346,0,0,1-1.952-.971A4.244,4.244,0,0,1,39.882-3.491Zm1.181.133a3.08,3.08,0,0,0,.476,1.825,1.547,1.547,0,0,0,1.333.663A1.72,1.72,0,0,0,44.5-1.879V-5.015A1.74,1.74,0,0,0,42.885-6a1.561,1.561,0,0,0-1.339.667A3.354,3.354,0,0,0,41.063-3.358ZM51.7-.679a2.494,2.494,0,0,1-2.012.806A2.135,2.135,0,0,1,48.01-.511,2.761,2.761,0,0,1,47.43-2.4V-6.868H48.6v4.437q0,1.562,1.27,1.562a1.758,1.758,0,0,0,1.79-1v-5h1.174V0H51.721Zm6.246-5.135a3.519,3.519,0,0,0-.578-.044,1.547,1.547,0,0,0-1.568.984V0H54.622V-6.868h1.143l.019.793A1.829,1.829,0,0,1,57.421-7a1.2,1.2,0,0,1,.521.089ZM63.007,0a2.467,2.467,0,0,1-.165-.724,2.62,2.62,0,0,1-1.955.851A2.424,2.424,0,0,1,59.22-.448,1.859,1.859,0,0,1,58.57-1.9a1.942,1.942,0,0,1,.816-1.666,3.846,3.846,0,0,1,2.295-.594h1.143V-4.7a1.319,1.319,0,0,0-.368-.981,1.48,1.48,0,0,0-1.085-.365,1.712,1.712,0,0,0-1.054.317.935.935,0,0,0-.425.768H58.709a1.621,1.621,0,0,1,.365-.993,2.491,2.491,0,0,1,.99-.759A3.331,3.331,0,0,1,61.439-7,2.715,2.715,0,0,1,63.3-6.4,2.141,2.141,0,0,1,64-4.767v3.161a3.865,3.865,0,0,0,.241,1.5V0ZM61.058-.9a2.064,2.064,0,0,0,1.047-.286,1.728,1.728,0,0,0,.717-.743V-3.333H61.9q-2.158,0-2.158,1.263a1.069,1.069,0,0,0,.368.863A1.415,1.415,0,0,0,61.058-.9Zm12-.927a.864.864,0,0,0-.359-.74,3.452,3.452,0,0,0-1.25-.454,5.912,5.912,0,0,1-1.416-.457,2.014,2.014,0,0,1-.774-.635,1.518,1.518,0,0,1-.251-.876,1.782,1.782,0,0,1,.714-1.428A2.789,2.789,0,0,1,71.544-7a2.87,2.87,0,0,1,1.895.6,1.915,1.915,0,0,1,.727,1.542H72.985a1.06,1.06,0,0,0-.409-.832,1.534,1.534,0,0,0-1.031-.349,1.606,1.606,0,0,0-1,.279.879.879,0,0,0-.362.73.712.712,0,0,0,.336.641,4.139,4.139,0,0,0,1.216.413,6.334,6.334,0,0,1,1.425.47,2.079,2.079,0,0,1,.809.657,1.615,1.615,0,0,1,.263.936,1.758,1.758,0,0,1-.736,1.476,3.089,3.089,0,0,1-1.911.555,3.459,3.459,0,0,1-1.46-.292,2.375,2.375,0,0,1-.993-.816,1.966,1.966,0,0,1-.359-1.133h1.174a1.216,1.216,0,0,0,.473.936,1.835,1.835,0,0,0,1.165.346,1.894,1.894,0,0,0,1.07-.27A.829.829,0,0,0,73.055-1.822ZM78.609.127A3,3,0,0,1,76.337-.79a3.4,3.4,0,0,1-.876-2.453v-.216a4.121,4.121,0,0,1,.39-1.825,3.045,3.045,0,0,1,1.092-1.257A2.745,2.745,0,0,1,78.463-7a2.572,2.572,0,0,1,2.082.882,3.82,3.82,0,0,1,.743,2.526V-3.1H76.635a2.441,2.441,0,0,0,.594,1.641,1.866,1.866,0,0,0,1.444.625,2.045,2.045,0,0,0,1.054-.254,2.648,2.648,0,0,0,.755-.673L81.2-1.2A2.884,2.884,0,0,1,78.609.127ZM78.463-6.03a1.566,1.566,0,0,0-1.193.517,2.515,2.515,0,0,0-.6,1.45h3.44v-.089a2.237,2.237,0,0,0-.482-1.387A1.475,1.475,0,0,0,78.463-6.03ZM90.1,0a2.467,2.467,0,0,1-.165-.724,2.62,2.62,0,0,1-1.955.851,2.424,2.424,0,0,1-1.666-.574A1.859,1.859,0,0,1,85.668-1.9a1.942,1.942,0,0,1,.816-1.666,3.846,3.846,0,0,1,2.295-.594h1.143V-4.7a1.319,1.319,0,0,0-.368-.981,1.48,1.48,0,0,0-1.085-.365,1.712,1.712,0,0,0-1.054.317.935.935,0,0,0-.425.768H85.808a1.621,1.621,0,0,1,.365-.993,2.491,2.491,0,0,1,.99-.759A3.331,3.331,0,0,1,88.537-7,2.715,2.715,0,0,1,90.4-6.4a2.141,2.141,0,0,1,.7,1.635v3.161a3.865,3.865,0,0,0,.241,1.5V0ZM88.156-.9A2.064,2.064,0,0,0,89.2-1.181a1.728,1.728,0,0,0,.717-.743V-3.333H89q-2.158,0-2.158,1.263a1.069,1.069,0,0,0,.368.863A1.415,1.415,0,0,0,88.156-.9ZM98.738-3.358a4.113,4.113,0,0,1-.717,2.526,2.3,2.3,0,0,1-1.942.958A2.519,2.519,0,0,1,94.11-.667V2.641H92.936V-6.868h1.073l.057.762A2.419,2.419,0,0,1,96.059-7a2.342,2.342,0,0,1,1.958.933,4.157,4.157,0,0,1,.72,2.6Zm-1.174-.133a3.035,3.035,0,0,0-.5-1.834A1.6,1.6,0,0,0,95.71-6a1.726,1.726,0,0,0-1.6.946v3.282a1.73,1.73,0,0,0,1.612.939,1.587,1.587,0,0,0,1.343-.67A3.313,3.313,0,0,0,97.563-3.491Zm5.986-2.323a3.519,3.519,0,0,0-.578-.044,1.547,1.547,0,0,0-1.568.984V0h-1.174V-6.868h1.143l.019.793A1.829,1.829,0,0,1,103.029-7a1.2,1.2,0,0,1,.521.089ZM107.358.127a3,3,0,0,1-2.272-.917,3.4,3.4,0,0,1-.876-2.453v-.216a4.121,4.121,0,0,1,.39-1.825,3.045,3.045,0,0,1,1.092-1.257A2.745,2.745,0,0,1,107.212-7a2.572,2.572,0,0,1,2.082.882,3.82,3.82,0,0,1,.743,2.526V-3.1h-4.653a2.441,2.441,0,0,0,.594,1.641,1.866,1.866,0,0,0,1.444.625,2.045,2.045,0,0,0,1.054-.254,2.648,2.648,0,0,0,.755-.673l.717.559A2.884,2.884,0,0,1,107.358.127Zm-.146-6.157a1.566,1.566,0,0,0-1.193.517,2.515,2.515,0,0,0-.6,1.45h3.44v-.089a2.237,2.237,0,0,0-.482-1.387A1.475,1.475,0,0,0,107.212-6.03Zm6.938,5.2a1.691,1.691,0,0,0,1.1-.381,1.34,1.34,0,0,0,.521-.952h1.111a2.13,2.13,0,0,1-.406,1.124,2.676,2.676,0,0,1-1,.851,2.885,2.885,0,0,1-1.323.317,2.829,2.829,0,0,1-2.231-.936,3.729,3.729,0,0,1-.828-2.561v-.2a4.135,4.135,0,0,1,.368-1.784,2.8,2.8,0,0,1,1.057-1.212A3,3,0,0,1,114.144-7a2.755,2.755,0,0,1,1.92.692,2.473,2.473,0,0,1,.816,1.8h-1.111a1.618,1.618,0,0,0-.5-1.095,1.57,1.57,0,0,0-1.12-.428,1.644,1.644,0,0,0-1.387.644,3.026,3.026,0,0,0-.492,1.863V-3.3a2.966,2.966,0,0,0,.489,1.828A1.651,1.651,0,0,0,114.15-.832ZM119.476,0H118.3V-6.868h1.174Zm-1.27-8.69a.7.7,0,0,1,.175-.482.655.655,0,0,1,.517-.2.666.666,0,0,1,.521.2.694.694,0,0,1,.178.482.671.671,0,0,1-.178.476.678.678,0,0,1-.521.19.667.667,0,0,1-.517-.19A.678.678,0,0,1,118.206-8.69ZM125.595,0a2.467,2.467,0,0,1-.165-.724,2.62,2.62,0,0,1-1.955.851,2.424,2.424,0,0,1-1.666-.574,1.859,1.859,0,0,1-.651-1.457,1.942,1.942,0,0,1,.816-1.666,3.846,3.846,0,0,1,2.295-.594h1.143V-4.7a1.319,1.319,0,0,0-.368-.981,1.48,1.48,0,0,0-1.085-.365,1.712,1.712,0,0,0-1.054.317.935.935,0,0,0-.425.768H121.3a1.621,1.621,0,0,1,.365-.993,2.491,2.491,0,0,1,.99-.759A3.331,3.331,0,0,1,124.027-7a2.715,2.715,0,0,1,1.86.594,2.141,2.141,0,0,1,.7,1.635v3.161a3.865,3.865,0,0,0,.241,1.5V0Zm-1.949-.9a2.064,2.064,0,0,0,1.047-.286,1.728,1.728,0,0,0,.717-.743V-3.333h-.92q-2.158,0-2.158,1.263a1.069,1.069,0,0,0,.368.863A1.415,1.415,0,0,0,123.646-.9Zm4.742.279a.735.735,0,0,1,.181-.508.689.689,0,0,1,.543-.2.71.71,0,0,1,.549.2.721.721,0,0,1,.187.508.682.682,0,0,1-.187.489.723.723,0,0,1-.549.2.7.7,0,0,1-.543-.2A.7.7,0,0,1,128.388-.616Zm.006-5.6a.735.735,0,0,1,.181-.508.689.689,0,0,1,.543-.2.71.71,0,0,1,.549.2.721.721,0,0,1,.187.508.682.682,0,0,1-.187.489.723.723,0,0,1-.549.2.7.7,0,0,1-.543-.2A.7.7,0,0,1,128.394-6.221Z" transform="translate(412 2491.269)" fill="#12263f"/>
    <path id="Trazado_898798" data-name="Trazado 898798" d="M2.292-3.618V0H1.073V-9.242H4.481a3.425,3.425,0,0,1,2.377.774,2.625,2.625,0,0,1,.86,2.05,2.591,2.591,0,0,1-.841,2.073,3.578,3.578,0,0,1-2.409.727Zm0-1h2.19a2.19,2.19,0,0,0,1.5-.461A1.686,1.686,0,0,0,6.5-6.408a1.742,1.742,0,0,0-.521-1.323,2.051,2.051,0,0,0-1.428-.515H2.292ZM8.7-3.5a4.057,4.057,0,0,1,.4-1.815,2.96,2.96,0,0,1,1.1-1.244A3.007,3.007,0,0,1,11.813-7a2.9,2.9,0,0,1,2.269.971,3.736,3.736,0,0,1,.866,2.583v.083a4.092,4.092,0,0,1-.384,1.8,2.916,2.916,0,0,1-1.1,1.241,3.041,3.041,0,0,1-1.641.444A2.889,2.889,0,0,1,9.563-.844,3.718,3.718,0,0,1,8.7-3.415Zm1.181.14a2.938,2.938,0,0,0,.53,1.834,1.7,1.7,0,0,0,1.419.692,1.686,1.686,0,0,0,1.422-.7A3.213,3.213,0,0,0,13.774-3.5a2.933,2.933,0,0,0-.536-1.831,1.705,1.705,0,0,0-1.425-.7,1.686,1.686,0,0,0-1.4.692A3.189,3.189,0,0,0,9.877-3.358Zm9.864-2.457a3.519,3.519,0,0,0-.578-.044,1.547,1.547,0,0,0-1.568.984V0H16.421V-6.868h1.143l.019.793A1.829,1.829,0,0,1,19.221-7a1.2,1.2,0,0,1,.521.089ZM25.314,0H24.14V-9.75h1.174Zm1.568-3.5a4.057,4.057,0,0,1,.4-1.815,2.96,2.96,0,0,1,1.1-1.244A3.007,3.007,0,0,1,30-7a2.9,2.9,0,0,1,2.269.971,3.736,3.736,0,0,1,.866,2.583v.083a4.092,4.092,0,0,1-.384,1.8,2.916,2.916,0,0,1-1.1,1.241,3.041,3.041,0,0,1-1.641.444,2.889,2.889,0,0,1-2.263-.971,3.718,3.718,0,0,1-.866-2.571Zm1.181.14a2.938,2.938,0,0,0,.53,1.834,1.7,1.7,0,0,0,1.419.692,1.686,1.686,0,0,0,1.422-.7A3.213,3.213,0,0,0,31.96-3.5a2.933,2.933,0,0,0-.536-1.831A1.705,1.705,0,0,0,30-6.03a1.686,1.686,0,0,0-1.4.692A3.189,3.189,0,0,0,28.063-3.358ZM39.419-8.531v1.663H40.7v.908H39.419V-1.7a.953.953,0,0,0,.171.62.721.721,0,0,0,.584.207,2.843,2.843,0,0,0,.559-.076V0a3.424,3.424,0,0,1-.9.126,1.462,1.462,0,0,1-1.187-.476,2.045,2.045,0,0,1-.4-1.352V-5.96h-1.25v-.908h1.25V-8.531ZM46.313,0a2.467,2.467,0,0,1-.165-.724,2.62,2.62,0,0,1-1.955.851,2.424,2.424,0,0,1-1.666-.574A1.859,1.859,0,0,1,41.875-1.9a1.942,1.942,0,0,1,.816-1.666,3.846,3.846,0,0,1,2.295-.594h1.143V-4.7a1.319,1.319,0,0,0-.368-.981,1.48,1.48,0,0,0-1.085-.365,1.712,1.712,0,0,0-1.054.317.935.935,0,0,0-.425.768H42.015a1.621,1.621,0,0,1,.365-.993,2.491,2.491,0,0,1,.99-.759A3.331,3.331,0,0,1,44.745-7,2.715,2.715,0,0,1,46.6-6.4a2.141,2.141,0,0,1,.7,1.635v3.161a3.865,3.865,0,0,0,.241,1.5V0ZM44.364-.9a2.064,2.064,0,0,0,1.047-.286,1.728,1.728,0,0,0,.717-.743V-3.333h-.92q-2.158,0-2.158,1.263a1.069,1.069,0,0,0,.368.863A1.415,1.415,0,0,0,44.364-.9Zm5.891-5.973L50.292-6A2.5,2.5,0,0,1,52.349-7q2.177,0,2.2,2.457V0H53.371V-4.545a1.581,1.581,0,0,0-.34-1.1A1.361,1.361,0,0,0,51.994-6a1.7,1.7,0,0,0-1,.3,2.069,2.069,0,0,0-.673.8V0H49.144V-6.868ZM57.91-8.531v1.663h1.282v.908H57.91V-1.7a.953.953,0,0,0,.171.62.721.721,0,0,0,.584.207,2.843,2.843,0,0,0,.559-.076V0a3.424,3.424,0,0,1-.9.126,1.462,1.462,0,0,1-1.187-.476,2.045,2.045,0,0,1-.4-1.352V-5.96h-1.25v-.908h1.25V-8.531ZM60.125-3.5a4.057,4.057,0,0,1,.4-1.815,2.96,2.96,0,0,1,1.1-1.244A3.007,3.007,0,0,1,63.242-7a2.9,2.9,0,0,1,2.269.971,3.736,3.736,0,0,1,.866,2.583v.083a4.092,4.092,0,0,1-.384,1.8A2.916,2.916,0,0,1,64.9-.317a3.041,3.041,0,0,1-1.641.444,2.889,2.889,0,0,1-2.263-.971,3.718,3.718,0,0,1-.866-2.571Zm1.181.14a2.938,2.938,0,0,0,.53,1.834,1.7,1.7,0,0,0,1.419.692,1.686,1.686,0,0,0,1.422-.7A3.213,3.213,0,0,0,65.2-3.5a2.933,2.933,0,0,0-.536-1.831,1.705,1.705,0,0,0-1.425-.7,1.686,1.686,0,0,0-1.4.692A3.189,3.189,0,0,0,61.306-3.358ZM67.812-.616a.735.735,0,0,1,.181-.508.689.689,0,0,1,.543-.2.71.71,0,0,1,.549.2.721.721,0,0,1,.187.508.681.681,0,0,1-.187.489.723.723,0,0,1-.549.2.7.7,0,0,1-.543-.2A.7.7,0,0,1,67.812-.616Zm.006-5.6A.735.735,0,0,1,68-6.729a.689.689,0,0,1,.543-.2.71.71,0,0,1,.549.2.721.721,0,0,1,.187.508.681.681,0,0,1-.187.489.723.723,0,0,1-.549.2.7.7,0,0,1-.543-.2A.7.7,0,0,1,67.818-6.221Z" transform="translate(639 2521.269)" fill="#12263f"/>
    <path id="Trazado_898801" data-name="Trazado 898801" d="M6.252-.322A4.517,4.517,0,0,1,4.125.129,3.43,3.43,0,0,1,1.493-.929,3.9,3.9,0,0,1,.5-3.706,4.092,4.092,0,0,1,1.617-6.692a3.774,3.774,0,0,1,2.82-1.139,4.521,4.521,0,0,1,1.815.317v.961a3.682,3.682,0,0,0-1.826-.462,2.8,2.8,0,0,0-2.151.886A3.339,3.339,0,0,0,1.45-3.76a3.177,3.177,0,0,0,.771,2.242,2.623,2.623,0,0,0,2.022.835A3.794,3.794,0,0,0,6.252-1.2ZM10,.129A2.551,2.551,0,0,1,8.054-.642a2.855,2.855,0,0,1-.728-2.044A2.974,2.974,0,0,1,8.083-4.85a2.723,2.723,0,0,1,2.046-.779,2.467,2.467,0,0,1,1.92.757,3,3,0,0,1,.69,2.1A2.955,2.955,0,0,1,12-.663,2.607,2.607,0,0,1,10,.129Zm.064-5.017a1.675,1.675,0,0,0-1.343.577,2.371,2.371,0,0,0-.494,1.593,2.243,2.243,0,0,0,.5,1.542,1.7,1.7,0,0,0,1.337.564,1.61,1.61,0,0,0,1.313-.553,2.4,2.4,0,0,0,.459-1.574,2.442,2.442,0,0,0-.459-1.59A1.6,1.6,0,0,0,10.065-4.888ZM13.814-.2v-.945A2.607,2.607,0,0,0,15.4-.612q1.16,0,1.16-.773a.671.671,0,0,0-.1-.373.99.99,0,0,0-.269-.271,2.067,2.067,0,0,0-.4-.212q-.228-.094-.491-.2a6.33,6.33,0,0,1-.642-.293,1.939,1.939,0,0,1-.462-.333,1.239,1.239,0,0,1-.279-.422,1.492,1.492,0,0,1-.094-.553A1.314,1.314,0,0,1,14-4.724a1.572,1.572,0,0,1,.473-.5,2.2,2.2,0,0,1,.674-.3,2.99,2.99,0,0,1,.781-.1,3.156,3.156,0,0,1,1.278.247v.892a2.491,2.491,0,0,0-1.4-.4,1.632,1.632,0,0,0-.446.056,1.091,1.091,0,0,0-.341.158.732.732,0,0,0-.22.244.644.644,0,0,0-.078.314.754.754,0,0,0,.078.36.792.792,0,0,0,.228.258,1.745,1.745,0,0,0,.365.2q.215.091.489.2a6.8,6.8,0,0,1,.655.287,2.247,2.247,0,0,1,.494.333,1.3,1.3,0,0,1,.314.427,1.377,1.377,0,0,1,.11.575,1.355,1.355,0,0,1-.18.709,1.542,1.542,0,0,1-.481.5,2.2,2.2,0,0,1-.693.3,3.421,3.421,0,0,1-.822.1A3.12,3.12,0,0,1,13.814-.2ZM22.489-1V.081h-.838V-1H21.42a2.869,2.869,0,0,1-2.159-.849,3.033,3.033,0,0,1-.822-2.2,2.832,2.832,0,0,1,.819-2.122,2.975,2.975,0,0,1,2.173-.8h.22v-.8h.838v.8h.226a2.951,2.951,0,0,1,2.167.8A2.844,2.844,0,0,1,25.7-4.05a3.02,3.02,0,0,1-.827,2.2A2.865,2.865,0,0,1,22.725-1Zm0-5.21v4.4h.236A2,2,0,0,0,24.259-2.4a2.3,2.3,0,0,0,.556-1.644,2.184,2.184,0,0,0-.567-1.582,2.03,2.03,0,0,0-1.533-.588Zm-.838,4.4v-4.4h-.22a2.055,2.055,0,0,0-1.536.585,2.171,2.171,0,0,0-.575,1.59,2.294,2.294,0,0,0,.556,1.641A2.022,2.022,0,0,0,21.42-1.8Z" transform="translate(654 2593.269)" fill="#12263f"/>
    <path id="Trazado_898799" data-name="Trazado 898799" d="M-34.108-2.382V0h-.738V-6.3h1.731a2.285,2.285,0,0,1,1.567.492,1.757,1.757,0,0,1,.556,1.389,1.91,1.91,0,0,1-.617,1.468,2.359,2.359,0,0,1-1.668.571Zm0-3.252V-3.05h.773A1.729,1.729,0,0,0-32.168-3.4a1.237,1.237,0,0,0,.4-.987q0-1.248-1.477-1.248ZM-28.356.105a2.087,2.087,0,0,1-1.593-.631,2.336,2.336,0,0,1-.6-1.672,2.433,2.433,0,0,1,.62-1.771,2.228,2.228,0,0,1,1.674-.637,2.018,2.018,0,0,1,1.571.62,2.457,2.457,0,0,1,.565,1.718,2.418,2.418,0,0,1-.609,1.725A2.133,2.133,0,0,1-28.356.105ZM-28.3-4a1.371,1.371,0,0,0-1.1.472,1.94,1.94,0,0,0-.4,1.3A1.835,1.835,0,0,0-29.4-.962,1.389,1.389,0,0,0-28.3-.5a1.318,1.318,0,0,0,1.074-.453,1.964,1.964,0,0,0,.376-1.288,2,2,0,0,0-.376-1.3A1.312,1.312,0,0,0-28.3-4Zm5.427,3.955A1.39,1.39,0,0,1-23.548.1Q-24.73.1-24.73-1.222V-3.885H-25.5V-4.5h.773V-5.6l.721-.233V-4.5h1.134v.615H-24.01v2.536a1.051,1.051,0,0,0,.154.646.614.614,0,0,0,.51.193.758.758,0,0,0,.47-.149ZM-18.3-2.07h-3.177a1.683,1.683,0,0,0,.4,1.16A1.394,1.394,0,0,0-20.006-.5a2.211,2.211,0,0,0,1.4-.5v.677a2.612,2.612,0,0,1-1.569.431,1.9,1.9,0,0,1-1.5-.613,2.509,2.509,0,0,1-.545-1.725,2.461,2.461,0,0,1,.6-1.712,1.909,1.909,0,0,1,1.479-.661,1.692,1.692,0,0,1,1.367.571A2.382,2.382,0,0,1-18.3-2.448Zm-.738-.611a1.466,1.466,0,0,0-.3-.971A1.026,1.026,0,0,0-20.16-4a1.164,1.164,0,0,0-.866.365,1.655,1.655,0,0,0-.439.954ZM-13.471,0h-.721V-2.566Q-14.192-4-15.238-4a1.134,1.134,0,0,0-.894.406,1.507,1.507,0,0,0-.354,1.026V0h-.721V-4.5h.721v.747h.018a1.624,1.624,0,0,1,1.477-.853,1.377,1.377,0,0,1,1.129.477,2.124,2.124,0,0,1,.391,1.378Zm4.425-.207a2.342,2.342,0,0,1-1.23.312A2.037,2.037,0,0,1-11.83-.521a2.269,2.269,0,0,1-.591-1.624,2.5,2.5,0,0,1,.637-1.786,2.229,2.229,0,0,1,1.7-.675,2.367,2.367,0,0,1,1.046.22v.738A1.832,1.832,0,0,0-10.11-4a1.449,1.449,0,0,0-1.132.494,1.876,1.876,0,0,0-.442,1.3,1.786,1.786,0,0,0,.415,1.248A1.431,1.431,0,0,0-10.154-.5,1.806,1.806,0,0,0-9.046-.892Zm1.459-5.436a.457.457,0,0,1-.33-.132.445.445,0,0,1-.136-.334.452.452,0,0,1,.136-.336.453.453,0,0,1,.33-.134.465.465,0,0,1,.336.134.448.448,0,0,1,.138.336.445.445,0,0,1-.138.33A.461.461,0,0,1-7.587-5.643ZM-7.236,0h-.721V-4.5h.721Zm4.68,0h-.721V-.7h-.018A1.509,1.509,0,0,1-4.678.105,1.479,1.479,0,0,1-5.73-.25a1.233,1.233,0,0,1-.38-.945q0-1.261,1.485-1.468l1.349-.189Q-3.276-4-4.2-4a2.215,2.215,0,0,0-1.468.554v-.738a2.789,2.789,0,0,1,1.529-.422q1.586,0,1.586,1.679Zm-.721-2.276-1.085.149a1.762,1.762,0,0,0-.756.248.716.716,0,0,0-.255.631.687.687,0,0,0,.235.538A.908.908,0,0,0-4.511-.5a1.157,1.157,0,0,0,.885-.376,1.342,1.342,0,0,0,.349-.951ZM4.489,0H3.768V-.7H3.751A1.509,1.509,0,0,1,2.366.105,1.479,1.479,0,0,1,1.314-.25,1.233,1.233,0,0,1,.934-1.2q0-1.261,1.485-1.468l1.349-.189Q3.768-4,2.841-4a2.215,2.215,0,0,0-1.468.554v-.738A2.789,2.789,0,0,1,2.9-4.605q1.586,0,1.586,1.679ZM3.768-2.276l-1.085.149a1.762,1.762,0,0,0-.756.248.716.716,0,0,0-.255.631.687.687,0,0,0,.235.538A.908.908,0,0,0,2.533-.5a1.157,1.157,0,0,0,.885-.376,1.342,1.342,0,0,0,.349-.951ZM6.585-.65H6.568V2.07H5.847V-4.5h.721v.791h.018a1.7,1.7,0,0,1,1.556-.9A1.648,1.648,0,0,1,9.5-4a2.5,2.5,0,0,1,.488,1.619A2.789,2.789,0,0,1,9.437-.573a1.829,1.829,0,0,1-1.5.679A1.506,1.506,0,0,1,6.585-.65ZM6.568-2.465v.628A1.338,1.338,0,0,0,6.93-.89,1.2,1.2,0,0,0,7.851-.5,1.206,1.206,0,0,0,8.877-1,2.3,2.3,0,0,0,9.248-2.4,1.814,1.814,0,0,0,8.9-3.573,1.149,1.149,0,0,0,7.961-4a1.277,1.277,0,0,0-1.011.437A1.606,1.606,0,0,0,6.568-2.465ZM14.359,0h-.721V-.7h-.018a1.509,1.509,0,0,1-1.384.809A1.479,1.479,0,0,1,11.184-.25,1.233,1.233,0,0,1,10.8-1.2q0-1.261,1.485-1.468l1.349-.189Q13.638-4,12.711-4a2.215,2.215,0,0,0-1.468.554v-.738a2.789,2.789,0,0,1,1.529-.422q1.586,0,1.586,1.679Zm-.721-2.276-1.085.149a1.762,1.762,0,0,0-.756.248.716.716,0,0,0-.255.631.687.687,0,0,0,.235.538A.908.908,0,0,0,12.4-.5a1.157,1.157,0,0,0,.885-.376,1.342,1.342,0,0,0,.349-.951Zm4.425-1.494a.881.881,0,0,0-.545-.145.92.92,0,0,0-.771.435,2.011,2.011,0,0,0-.31,1.187V0h-.721V-4.5h.721v.927h.018a1.571,1.571,0,0,1,.47-.74,1.072,1.072,0,0,1,.708-.266,1.177,1.177,0,0,1,.431.062Zm4.4,1.7H19.285a1.683,1.683,0,0,0,.4,1.16A1.394,1.394,0,0,0,20.753-.5a2.211,2.211,0,0,0,1.4-.5v.677a2.612,2.612,0,0,1-1.569.431,1.9,1.9,0,0,1-1.5-.613,2.509,2.509,0,0,1-.545-1.725,2.461,2.461,0,0,1,.6-1.712,1.909,1.909,0,0,1,1.479-.661,1.692,1.692,0,0,1,1.367.571,2.382,2.382,0,0,1,.483,1.586Zm-.738-.611a1.466,1.466,0,0,0-.3-.971A1.026,1.026,0,0,0,20.6-4a1.164,1.164,0,0,0-.866.365,1.655,1.655,0,0,0-.439.954ZM27.288,0h-.721V-2.566Q26.567-4,25.521-4a1.134,1.134,0,0,0-.894.406,1.507,1.507,0,0,0-.354,1.026V0h-.721V-4.5h.721v.747h.018a1.624,1.624,0,0,1,1.477-.853,1.377,1.377,0,0,1,1.129.477,2.124,2.124,0,0,1,.391,1.378Zm3.445-.044A1.39,1.39,0,0,1,30.061.1q-1.182,0-1.182-1.318V-3.885h-.773V-4.5h.773V-5.6l.721-.233V-4.5h1.134v.615H29.6v2.536a1.051,1.051,0,0,0,.154.646.614.614,0,0,0,.51.193.758.758,0,0,0,.47-.149ZM35.312-2.07H32.135a1.683,1.683,0,0,0,.4,1.16A1.394,1.394,0,0,0,33.6-.5,2.211,2.211,0,0,0,35-1v.677a2.612,2.612,0,0,1-1.569.431,1.9,1.9,0,0,1-1.5-.613,2.509,2.509,0,0,1-.545-1.725,2.461,2.461,0,0,1,.6-1.712,1.909,1.909,0,0,1,1.479-.661,1.692,1.692,0,0,1,1.367.571,2.382,2.382,0,0,1,.483,1.586Zm-.738-.611a1.466,1.466,0,0,0-.3-.971A1.026,1.026,0,0,0,33.449-4a1.164,1.164,0,0,0-.866.365,1.655,1.655,0,0,0-.439.954ZM-12.245,9.745v-.87a1.69,1.69,0,0,0,.358.237,2.9,2.9,0,0,0,.439.178,3.5,3.5,0,0,0,.464.112,2.585,2.585,0,0,0,.431.04,1.687,1.687,0,0,0,1.017-.253A.855.855,0,0,0-9.2,8.462a.854.854,0,0,0-.112-.444,1.262,1.262,0,0,0-.31-.345,3.074,3.074,0,0,0-.468-.3q-.27-.143-.582-.3-.33-.167-.615-.338a2.666,2.666,0,0,1-.5-.378,1.576,1.576,0,0,1-.332-.468,1.449,1.449,0,0,1-.121-.613,1.442,1.442,0,0,1,.189-.749,1.621,1.621,0,0,1,.5-.525,2.251,2.251,0,0,1,.7-.308,3.209,3.209,0,0,1,.8-.1,3.073,3.073,0,0,1,1.358.224v.831a2.461,2.461,0,0,0-1.433-.387,2.356,2.356,0,0,0-.483.051,1.365,1.365,0,0,0-.431.165.954.954,0,0,0-.308.294.782.782,0,0,0-.119.439.9.9,0,0,0,.09.417,1.023,1.023,0,0,0,.266.321,2.648,2.648,0,0,0,.428.281q.253.136.582.3t.642.352a2.933,2.933,0,0,1,.532.409,1.816,1.816,0,0,1,.363.5,1.4,1.4,0,0,1,.134.624,1.582,1.582,0,0,1-.182.789,1.5,1.5,0,0,1-.492.525,2.15,2.15,0,0,1-.714.292,3.911,3.911,0,0,1-.853.09,3.474,3.474,0,0,1-.369-.024q-.22-.024-.448-.07a3.658,3.658,0,0,1-.433-.114A1.347,1.347,0,0,1-12.245,9.745Zm6.869,1.688h-.642A5.616,5.616,0,0,1-7.381,7.6,5.829,5.829,0,0,1-6.018,3.7h.65a5.922,5.922,0,0,0-1.38,3.889A5.819,5.819,0,0,0-5.377,11.433ZM-.815,10H-1.826L-3.812,7.838H-3.83V10h-.721V3.338h.721V7.561h.018L-1.923,5.5h.945L-3.065,7.671ZM4.7,3.7,2.371,10H1.558L-.727,3.7H.094l1.745,5a2.967,2.967,0,0,1,.127.558h.018a2.737,2.737,0,0,1,.145-.567L3.909,3.7ZM9.96,10H9.143L8.475,8.233H5.8L5.175,10H4.353L6.77,3.7h.765ZM8.233,7.57,7.244,4.885a2.571,2.571,0,0,1-.1-.422H7.13a2.354,2.354,0,0,1-.1.422L6.049,7.57Zm2.575,3.863h-.642a5.819,5.819,0,0,0,1.371-3.845A5.922,5.922,0,0,0,10.158,3.7h.65a5.806,5.806,0,0,1,1.371,3.9A5.594,5.594,0,0,1,10.808,11.433Z" transform="translate(642.93 2564.412) rotate(-30)" fill="#12263f"/>
    <path id="Trazado_898800" data-name="Trazado 898800" d="M1.564-2.382V0H.826V-6.3H2.558a2.285,2.285,0,0,1,1.567.492A1.757,1.757,0,0,1,4.68-4.421a1.91,1.91,0,0,1-.617,1.468A2.359,2.359,0,0,1,2.4-2.382Zm0-3.252V-3.05h.773A1.729,1.729,0,0,0,3.5-3.4a1.237,1.237,0,0,0,.4-.987q0-1.248-1.477-1.248ZM7.317.105A2.087,2.087,0,0,1,5.724-.525a2.336,2.336,0,0,1-.6-1.672,2.433,2.433,0,0,1,.62-1.771,2.228,2.228,0,0,1,1.674-.637,2.018,2.018,0,0,1,1.571.62,2.457,2.457,0,0,1,.565,1.718A2.418,2.418,0,0,1,8.949-.543,2.133,2.133,0,0,1,7.317.105ZM7.37-4a1.371,1.371,0,0,0-1.1.472,1.94,1.94,0,0,0-.4,1.3A1.835,1.835,0,0,0,6.275-.962,1.389,1.389,0,0,0,7.37-.5,1.318,1.318,0,0,0,8.444-.954,1.964,1.964,0,0,0,8.82-2.241a2,2,0,0,0-.376-1.3A1.312,1.312,0,0,0,7.37-4ZM12.8-.044A1.39,1.39,0,0,1,12.125.1q-1.182,0-1.182-1.318V-3.885h-.773V-4.5h.773V-5.6l.721-.233V-4.5H12.8v.615H11.663v2.536a1.051,1.051,0,0,0,.154.646.614.614,0,0,0,.51.193.758.758,0,0,0,.47-.149ZM17.376-2.07H14.2a1.683,1.683,0,0,0,.4,1.16A1.394,1.394,0,0,0,15.667-.5a2.211,2.211,0,0,0,1.4-.5v.677A2.612,2.612,0,0,1,15.5.105,1.9,1.9,0,0,1,14-.508a2.509,2.509,0,0,1-.545-1.725,2.461,2.461,0,0,1,.6-1.712,1.909,1.909,0,0,1,1.479-.661,1.692,1.692,0,0,1,1.367.571,2.382,2.382,0,0,1,.483,1.586Zm-.738-.611a1.466,1.466,0,0,0-.3-.971A1.026,1.026,0,0,0,15.513-4a1.164,1.164,0,0,0-.866.365,1.655,1.655,0,0,0-.439.954ZM22.2,0H21.48V-2.566Q21.48-4,20.435-4a1.134,1.134,0,0,0-.894.406,1.507,1.507,0,0,0-.354,1.026V0h-.721V-4.5h.721v.747H19.2a1.624,1.624,0,0,1,1.477-.853,1.377,1.377,0,0,1,1.129.477A2.124,2.124,0,0,1,22.2-2.751Zm4.425-.207A2.342,2.342,0,0,1,25.4.105a2.037,2.037,0,0,1-1.553-.626,2.269,2.269,0,0,1-.591-1.624,2.5,2.5,0,0,1,.637-1.786,2.229,2.229,0,0,1,1.7-.675,2.367,2.367,0,0,1,1.046.22v.738A1.832,1.832,0,0,0,25.563-4a1.449,1.449,0,0,0-1.132.494,1.876,1.876,0,0,0-.442,1.3,1.786,1.786,0,0,0,.415,1.248A1.431,1.431,0,0,0,25.519-.5a1.806,1.806,0,0,0,1.107-.391Zm1.459-5.436a.457.457,0,0,1-.33-.132.445.445,0,0,1-.136-.334.452.452,0,0,1,.136-.336.453.453,0,0,1,.33-.134.465.465,0,0,1,.336.134.448.448,0,0,1,.138.336.445.445,0,0,1-.138.33A.461.461,0,0,1,28.085-5.643ZM28.437,0h-.721V-4.5h.721Zm4.68,0H32.4V-.7h-.018a1.509,1.509,0,0,1-1.384.809A1.479,1.479,0,0,1,29.942-.25a1.233,1.233,0,0,1-.38-.945q0-1.261,1.485-1.468L32.4-2.852Q32.4-4,31.469-4A2.215,2.215,0,0,0,30-3.445v-.738a2.789,2.789,0,0,1,1.529-.422q1.586,0,1.586,1.679ZM32.4-2.276l-1.085.149a1.762,1.762,0,0,0-.756.248.716.716,0,0,0-.255.631.687.687,0,0,0,.235.538.908.908,0,0,0,.626.209,1.157,1.157,0,0,0,.885-.376,1.342,1.342,0,0,0,.349-.951ZM3.076,6.229a.881.881,0,0,0-.545-.145.92.92,0,0,0-.771.435,2.011,2.011,0,0,0-.31,1.187V10H.729V5.5H1.45v.927h.018a1.571,1.571,0,0,1,.47-.74,1.072,1.072,0,0,1,.708-.266,1.177,1.177,0,0,1,.431.062Zm4.4,1.7H4.3a1.683,1.683,0,0,0,.4,1.16A1.394,1.394,0,0,0,5.766,9.5a2.211,2.211,0,0,0,1.4-.5v.677a2.612,2.612,0,0,1-1.569.431,1.9,1.9,0,0,1-1.5-.613,2.509,2.509,0,0,1-.545-1.725,2.461,2.461,0,0,1,.6-1.712,1.909,1.909,0,0,1,1.479-.661,1.692,1.692,0,0,1,1.367.571,2.382,2.382,0,0,1,.483,1.586Zm-.738-.611a1.466,1.466,0,0,0-.3-.971A1.026,1.026,0,0,0,5.612,6a1.164,1.164,0,0,0-.866.365,1.655,1.655,0,0,0-.439.954ZM11.786,10h-.721V9.3h-.018a1.509,1.509,0,0,1-1.384.809A1.479,1.479,0,0,1,8.611,9.75a1.233,1.233,0,0,1-.38-.945q0-1.261,1.485-1.468l1.349-.189Q11.065,6,10.138,6a2.215,2.215,0,0,0-1.468.554V5.816A2.789,2.789,0,0,1,10.2,5.395q1.586,0,1.586,1.679Zm-.721-2.276L9.98,7.873a1.762,1.762,0,0,0-.756.248.716.716,0,0,0-.255.631A.687.687,0,0,0,9.2,9.29a.908.908,0,0,0,.626.209,1.157,1.157,0,0,0,.885-.376,1.342,1.342,0,0,0,.349-.951Zm5.146,2.07a2.342,2.342,0,0,1-1.23.312,2.037,2.037,0,0,1-1.553-.626,2.269,2.269,0,0,1-.591-1.624,2.5,2.5,0,0,1,.637-1.786,2.229,2.229,0,0,1,1.7-.675,2.367,2.367,0,0,1,1.046.22v.738A1.832,1.832,0,0,0,15.148,6a1.449,1.449,0,0,0-1.132.494,1.876,1.876,0,0,0-.442,1.3,1.786,1.786,0,0,0,.415,1.248A1.431,1.431,0,0,0,15.1,9.5a1.806,1.806,0,0,0,1.107-.391Zm3.177.163a1.39,1.39,0,0,1-.672.141q-1.182,0-1.182-1.318V6.115h-.773V5.5h.773V4.4l.721-.233V5.5h1.134v.615H18.255V8.651a1.051,1.051,0,0,0,.154.646.614.614,0,0,0,.51.193.758.758,0,0,0,.47-.149Zm1.332-5.6a.457.457,0,0,1-.33-.132.445.445,0,0,1-.136-.334.462.462,0,0,1,.466-.47.465.465,0,0,1,.336.134.469.469,0,0,1,0,.666A.461.461,0,0,1,20.72,4.357ZM21.072,10h-.721V5.5h.721Zm5-4.5L24.275,10h-.708L21.863,5.5h.791L23.8,8.77a2.935,2.935,0,0,1,.158.628h.018a2.972,2.972,0,0,1,.141-.611l1.2-3.287ZM30.063,10h-.721V9.3h-.018a1.509,1.509,0,0,1-1.384.809,1.479,1.479,0,0,1-1.052-.356,1.233,1.233,0,0,1-.38-.945q0-1.261,1.485-1.468l1.349-.189Q29.342,6,28.415,6a2.215,2.215,0,0,0-1.468.554V5.816a2.789,2.789,0,0,1,1.529-.422q1.586,0,1.586,1.679Zm-.721-2.276-1.085.149a1.762,1.762,0,0,0-.756.248.716.716,0,0,0-.255.631.687.687,0,0,0,.235.538.908.908,0,0,0,.626.209,1.157,1.157,0,0,0,.885-.376,1.342,1.342,0,0,0,.349-.951ZM3.366,20.105a2.782,2.782,0,0,1-2.149-.883,3.282,3.282,0,0,1-.8-2.3A3.461,3.461,0,0,1,1.235,14.5a2.879,2.879,0,0,1,2.237-.905,2.706,2.706,0,0,1,2.1.879,3.283,3.283,0,0,1,.8,2.3,3.483,3.483,0,0,1-.817,2.439,2.426,2.426,0,0,1-.413.369l1.771,1.27H5.572L4.386,19.96A3.416,3.416,0,0,1,3.366,20.105Zm.053-5.845a2.032,2.032,0,0,0-1.613.716,2.773,2.773,0,0,0-.62,1.881,2.818,2.818,0,0,0,.6,1.876,1.98,1.98,0,0,0,1.578.708A2.069,2.069,0,0,0,5,18.765a2.766,2.766,0,0,0,.6-1.894,2.879,2.879,0,0,0-.58-1.929A1.989,1.989,0,0,0,3.419,14.261ZM9.4,21.433H8.763A5.616,5.616,0,0,1,7.4,17.6a5.829,5.829,0,0,1,1.362-3.9h.65a5.922,5.922,0,0,0-1.38,3.889A5.819,5.819,0,0,0,9.4,21.433ZM13.966,20H12.955l-1.986-2.162h-.018V20H10.23V13.338h.721v4.223h.018l1.89-2.061H13.8l-2.087,2.171Zm5.52-6.3L17.152,20h-.813l-2.285-6.3h.822l1.745,5a2.967,2.967,0,0,1,.127.558h.018a2.737,2.737,0,0,1,.145-.567L18.69,13.7ZM24.741,20h-.817l-.668-1.767H20.584L19.956,20h-.822l2.417-6.3h.765Zm-1.727-2.43-.989-2.685a2.571,2.571,0,0,1-.1-.422h-.018a2.354,2.354,0,0,1-.1.422l-.98,2.685ZM30.186,20h-.879l-1.055-1.767a3.848,3.848,0,0,0-.281-.42,1.6,1.6,0,0,0-.279-.283.967.967,0,0,0-.308-.16,1.265,1.265,0,0,0-.371-.051h-.606V20h-.738V13.7h1.881a2.68,2.68,0,0,1,.762.1,1.706,1.706,0,0,1,.606.314,1.46,1.46,0,0,1,.4.525,1.741,1.741,0,0,1,.145.736,1.772,1.772,0,0,1-.1.6,1.578,1.578,0,0,1-.281.49,1.7,1.7,0,0,1-.439.367,2.243,2.243,0,0,1-.578.235v.018a1.329,1.329,0,0,1,.275.16,1.512,1.512,0,0,1,.222.213,2.823,2.823,0,0,1,.209.279q.1.156.231.363Zm-3.779-5.634v2.285h1a1.52,1.52,0,0,0,.512-.083,1.185,1.185,0,0,0,.406-.24,1.086,1.086,0,0,0,.268-.382,1.28,1.28,0,0,0,.1-.508.988.988,0,0,0-.327-.789,1.406,1.406,0,0,0-.947-.283Zm4.566,7.066h-.642A5.819,5.819,0,0,0,31.7,17.587a5.922,5.922,0,0,0-1.38-3.889h.65a5.806,5.806,0,0,1,1.371,3.9A5.594,5.594,0,0,1,30.973,21.433Z" transform="translate(709 2570.269)" fill="#12263f"/>
    <path id="Trazado_898802" data-name="Trazado 898802" d="M-27.969-2.382V0h-.738V-6.3h1.731a2.285,2.285,0,0,1,1.567.492,1.757,1.757,0,0,1,.556,1.389,1.91,1.91,0,0,1-.617,1.468,2.359,2.359,0,0,1-1.668.571Zm0-3.252V-3.05h.773A1.729,1.729,0,0,0-26.029-3.4a1.237,1.237,0,0,0,.4-.987q0-1.248-1.477-1.248ZM-22.217.105A2.087,2.087,0,0,1-23.81-.525a2.336,2.336,0,0,1-.6-1.672,2.433,2.433,0,0,1,.62-1.771,2.228,2.228,0,0,1,1.674-.637,2.018,2.018,0,0,1,1.571.62,2.457,2.457,0,0,1,.565,1.718,2.418,2.418,0,0,1-.609,1.725A2.133,2.133,0,0,1-22.217.105Zm.053-4.1a1.371,1.371,0,0,0-1.1.472,1.94,1.94,0,0,0-.4,1.3,1.835,1.835,0,0,0,.409,1.261A1.389,1.389,0,0,0-22.164-.5a1.318,1.318,0,0,0,1.074-.453,1.964,1.964,0,0,0,.376-1.288,2,2,0,0,0-.376-1.3A1.312,1.312,0,0,0-22.164-4Zm5.427,3.955A1.39,1.39,0,0,1-17.409.1q-1.182,0-1.182-1.318V-3.885h-.773V-4.5h.773V-5.6l.721-.233V-4.5h1.134v.615H-17.87v2.536a1.051,1.051,0,0,0,.154.646.614.614,0,0,0,.51.193.758.758,0,0,0,.47-.149Zm4.579-2.026h-3.177a1.683,1.683,0,0,0,.4,1.16A1.394,1.394,0,0,0-13.867-.5a2.211,2.211,0,0,0,1.4-.5v.677a2.612,2.612,0,0,1-1.569.431,1.9,1.9,0,0,1-1.5-.613,2.509,2.509,0,0,1-.545-1.725,2.461,2.461,0,0,1,.6-1.712,1.909,1.909,0,0,1,1.479-.661,1.692,1.692,0,0,1,1.367.571,2.382,2.382,0,0,1,.483,1.586Zm-.738-.611a1.466,1.466,0,0,0-.3-.971A1.026,1.026,0,0,0-14.021-4a1.164,1.164,0,0,0-.866.365,1.655,1.655,0,0,0-.439.954ZM-7.332,0h-.721V-2.566Q-8.053-4-9.1-4a1.134,1.134,0,0,0-.894.406,1.507,1.507,0,0,0-.354,1.026V0h-.721V-4.5h.721v.747h.018a1.624,1.624,0,0,1,1.477-.853,1.377,1.377,0,0,1,1.129.477,2.124,2.124,0,0,1,.391,1.378Zm4.425-.207a2.342,2.342,0,0,1-1.23.312A2.037,2.037,0,0,1-5.691-.521a2.269,2.269,0,0,1-.591-1.624,2.5,2.5,0,0,1,.637-1.786,2.229,2.229,0,0,1,1.7-.675,2.367,2.367,0,0,1,1.046.22v.738A1.832,1.832,0,0,0-3.97-4,1.449,1.449,0,0,0-5.1-3.5a1.876,1.876,0,0,0-.442,1.3A1.786,1.786,0,0,0-5.128-.958,1.431,1.431,0,0,0-4.014-.5,1.806,1.806,0,0,0-2.907-.892Zm1.459-5.436a.457.457,0,0,1-.33-.132.445.445,0,0,1-.136-.334.452.452,0,0,1,.136-.336.453.453,0,0,1,.33-.134.465.465,0,0,1,.336.134.448.448,0,0,1,.138.336.445.445,0,0,1-.138.33A.461.461,0,0,1-1.448-5.643ZM-1.1,0h-.721V-4.5H-1.1Zm4.68,0H2.863V-.7H2.845A1.509,1.509,0,0,1,1.461.105,1.479,1.479,0,0,1,.409-.25,1.233,1.233,0,0,1,.029-1.2q0-1.261,1.485-1.468l1.349-.189Q2.863-4,1.936-4a2.215,2.215,0,0,0-1.468.554v-.738A2.789,2.789,0,0,1,2-4.605q1.586,0,1.586,1.679ZM2.863-2.276l-1.085.149a1.762,1.762,0,0,0-.756.248.716.716,0,0,0-.255.631A.687.687,0,0,0,1-.71.908.908,0,0,0,1.628-.5a1.157,1.157,0,0,0,.885-.376,1.342,1.342,0,0,0,.349-.951ZM10.628,0H9.907V-.7H9.89A1.509,1.509,0,0,1,8.506.105,1.479,1.479,0,0,1,7.453-.25a1.233,1.233,0,0,1-.38-.945q0-1.261,1.485-1.468l1.349-.189Q9.907-4,8.98-4a2.215,2.215,0,0,0-1.468.554v-.738a2.789,2.789,0,0,1,1.529-.422q1.586,0,1.586,1.679ZM9.907-2.276l-1.085.149a1.762,1.762,0,0,0-.756.248.716.716,0,0,0-.255.631.687.687,0,0,0,.235.538A.908.908,0,0,0,8.673-.5a1.157,1.157,0,0,0,.885-.376,1.342,1.342,0,0,0,.349-.951Zm5.146,2.07a2.342,2.342,0,0,1-1.23.312A2.037,2.037,0,0,1,12.27-.521a2.269,2.269,0,0,1-.591-1.624,2.5,2.5,0,0,1,.637-1.786,2.229,2.229,0,0,1,1.7-.675,2.367,2.367,0,0,1,1.046.22v.738A1.832,1.832,0,0,0,13.99-4a1.449,1.449,0,0,0-1.132.494,1.876,1.876,0,0,0-.442,1.3,1.786,1.786,0,0,0,.415,1.248A1.431,1.431,0,0,0,13.946-.5a1.806,1.806,0,0,0,1.107-.391Zm3.177.163A1.39,1.39,0,0,1,17.558.1q-1.182,0-1.182-1.318V-3.885H15.6V-4.5h.773V-5.6l.721-.233V-4.5h1.134v.615H17.1v2.536a1.051,1.051,0,0,0,.154.646.614.614,0,0,0,.51.193.758.758,0,0,0,.47-.149Zm1.332-5.6a.457.457,0,0,1-.33-.132.445.445,0,0,1-.136-.334.452.452,0,0,1,.136-.336.453.453,0,0,1,.33-.134.465.465,0,0,1,.336.134.448.448,0,0,1,.138.336.445.445,0,0,1-.138.33A.461.461,0,0,1,19.562-5.643ZM19.914,0h-.721V-4.5h.721Zm5-4.5L23.117,0H22.41L20.7-4.5H21.5l1.143,3.27A2.935,2.935,0,0,1,22.8-.6h.018a2.972,2.972,0,0,1,.141-.611L24.15-4.5ZM28.905,0h-.721V-.7h-.018a1.509,1.509,0,0,1-1.384.809A1.479,1.479,0,0,1,25.73-.25a1.233,1.233,0,0,1-.38-.945q0-1.261,1.485-1.468l1.349-.189Q28.184-4,27.257-4a2.215,2.215,0,0,0-1.468.554v-.738a2.789,2.789,0,0,1,1.529-.422q1.586,0,1.586,1.679Zm-.721-2.276L27.1-2.127a1.762,1.762,0,0,0-.756.248.716.716,0,0,0-.255.631.687.687,0,0,0,.235.538.908.908,0,0,0,.626.209,1.157,1.157,0,0,0,.885-.376,1.342,1.342,0,0,0,.349-.951Zm-38.3,9.895V10h-.738V3.7h1.731a2.285,2.285,0,0,1,1.567.492A1.757,1.757,0,0,1-7,5.579a1.91,1.91,0,0,1-.617,1.468,2.359,2.359,0,0,1-1.668.571Zm0-3.252V6.95h.773A1.729,1.729,0,0,0-8.172,6.6a1.237,1.237,0,0,0,.4-.987q0-1.248-1.477-1.248Zm6.1,7.066h-.642A5.616,5.616,0,0,1-6.021,7.6,5.829,5.829,0,0,1-4.658,3.7h.65a5.922,5.922,0,0,0-1.38,3.889A5.819,5.819,0,0,0-4.017,11.433ZM.545,10H-.466L-2.452,7.838H-2.47V10H-3.19V3.338h.721V7.561h.018L-.562,5.5H.382L-1.705,7.671ZM8.851,3.7,7.071,10H6.205l-1.3-4.605a2.883,2.883,0,0,1-.1-.642H4.79a3.255,3.255,0,0,1-.114.633L3.371,10H2.514L.668,3.7h.813l1.34,4.834a3.173,3.173,0,0,1,.105.633h.022a3.736,3.736,0,0,1,.136-.633L4.478,3.7h.708L6.521,8.567a3.562,3.562,0,0,1,.105.589h.018a3.53,3.53,0,0,1,.119-.606L8.051,3.7Zm.857,7.734H9.066a5.819,5.819,0,0,0,1.371-3.845A5.922,5.922,0,0,0,9.057,3.7h.65a5.806,5.806,0,0,1,1.371,3.9A5.594,5.594,0,0,1,9.708,11.433Z" transform="translate(661 2615.269)" fill="#12263f"/>
    <g id="Grupo_1108407" data-name="Grupo 1108407" transform="translate(428.195 2505.776)">
      <g id="Grupo_1108406" data-name="Grupo 1108406" transform="translate(3.771)">
        <path id="Trazado_898764" data-name="Trazado 898764" d="M0,4.3a2.115,2.115,0,0,0,1.021-.268,2.349,2.349,0,0,0,.711-1.289L4.32-6.6l.2-.8q.031-.144.046-.263a1.653,1.653,0,0,0,.015-.211.705.705,0,0,0-.34-.681,3.021,3.021,0,0,0-1.165-.237v-.34H8.3a7.046,7.046,0,0,1,2.609.4,2.787,2.787,0,0,1,1.866,2.815,3.563,3.563,0,0,1-.742,2.227Q10.6-1.8,6.867-1.8q-.454,0-.9-.036A7.426,7.426,0,0,1,5.1-1.956L3.98,2.106q-.1.371-.155.608a3.135,3.135,0,0,0-.093.639.771.771,0,0,0,.314.711A2.55,2.55,0,0,0,5.176,4.3v.34H0ZM5.3-2.688q.2.041.479.072a7.068,7.068,0,0,0,.737.031A5.689,5.689,0,0,0,8.97-3.018,3.062,3.062,0,0,0,10.62-6.06a2.18,2.18,0,0,0-.742-1.877A3.265,3.265,0,0,0,7.9-8.483a2.289,2.289,0,0,0-.748.093.654.654,0,0,0-.366.474ZM1.072,27.472l.4.052q-.01.361-.01.423a3.676,3.676,0,0,0,.892,2.583,2.844,2.844,0,0,0,2.181.974,2.443,2.443,0,0,0,2.011-.876,2.977,2.977,0,0,0,.711-1.918,2.79,2.79,0,0,0-.134-.825,3.149,3.149,0,0,0-.681-1.2l-1.32-1.444a18.541,18.541,0,0,1-1.959-2.392,2.991,2.991,0,0,1-.433-1.567,3.551,3.551,0,0,1,.969-2.4,3.6,3.6,0,0,1,2.846-1.1,5.64,5.64,0,0,1,1.722.284,5.9,5.9,0,0,0,1.062.284.811.811,0,0,0,.557-.191,1.952,1.952,0,0,0,.351-.4h.485l-.856,4.207-.361-.052a5.888,5.888,0,0,0-.382-2.2A2.273,2.273,0,0,0,6.867,18.5a2.369,2.369,0,0,0-1.66.583,1.891,1.891,0,0,0-.639,1.459,2.3,2.3,0,0,0,.289,1.2A9.2,9.2,0,0,0,5.96,23.1l1.908,2.052a5.343,5.343,0,0,1,.866,1.263,3.655,3.655,0,0,1,.351,1.645,4.236,4.236,0,0,1-1.15,2.923,3.931,3.931,0,0,1-3.067,1.273,5.717,5.717,0,0,1-2.026-.387,5.541,5.541,0,0,0-1.273-.387.709.709,0,0,0-.536.175,1.605,1.605,0,0,0-.3.526H.361Z" transform="translate(0 9.133)" fill="#12263f"/>
        <path id="Trazado_898763" data-name="Trazado 898763" d="M12.561-3.1,12.3-1.854H1.714L1.972-3.1Zm-.887,4.176-.258,1.248H.827l.258-1.248ZM28.832-9.133a8.888,8.888,0,0,1,1.99.247,9.183,9.183,0,0,0,1.3.247.878.878,0,0,0,.536-.124.932.932,0,0,0,.258-.351h.433l-.773,4.207L32.2-4.957a4.882,4.882,0,0,0-.557-2.011,2.861,2.861,0,0,0-2.691-1.413A5.52,5.52,0,0,0,24.2-5.494,9.777,9.777,0,0,0,22.573-.06a4.812,4.812,0,0,0,.99,3.289A3.252,3.252,0,0,0,26.11,4.343a5.737,5.737,0,0,0,2.949-.784,12.811,12.811,0,0,0,2.072-1.7l.34.3a9.152,9.152,0,0,1-2.614,2.3,6.321,6.321,0,0,1-3.212.84,5.012,5.012,0,0,1-4.052-1.67,5.851,5.851,0,0,1-1.413-3.9,8.782,8.782,0,0,1,2.361-5.9A8.046,8.046,0,0,1,28.832-9.133Zm6.7,11.827a2.273,2.273,0,0,0,.428,1.418,1.478,1.478,0,0,0,1.253.562q1.681,0,2.98-2.536a8.945,8.945,0,0,0,1.1-4,3.485,3.485,0,0,0-.186-1.248,1.316,1.316,0,0,0-1.32-.9q-1.578,0-2.959,2.361A8.521,8.521,0,0,0,35.534,2.693Zm4.372-7.135a2.9,2.9,0,0,1,2.444.923,3.468,3.468,0,0,1,.711,2.181,6.36,6.36,0,0,1-1.928,4.289,5.749,5.749,0,0,1-4.248,2.186,3.145,3.145,0,0,1-2.279-.825,3.071,3.071,0,0,1-.856-2.32,6.3,6.3,0,0,1,1.918-4.32A5.743,5.743,0,0,1,39.906-4.442Zm4.6,6.279h.34a6.605,6.605,0,0,0,.536,1.825,1.816,1.816,0,0,0,1.691,1.062,1.41,1.41,0,0,0,1.057-.443,1.621,1.621,0,0,0,.428-1.175,2.145,2.145,0,0,0-.108-.742,2.378,2.378,0,0,0-.273-.526L47.319.569Q46.546-.586,46.35-.977a2.572,2.572,0,0,1-.3-1.175A2.242,2.242,0,0,1,46.7-3.736a2.39,2.39,0,0,1,1.83-.686,4.158,4.158,0,0,1,1.155.191,3.892,3.892,0,0,0,.887.191.588.588,0,0,0,.382-.1,1.051,1.051,0,0,0,.227-.278h.3l-.423,2.928h-.34A4.657,4.657,0,0,0,50.309-3a1.652,1.652,0,0,0-1.567-.938,1.263,1.263,0,0,0-.809.284,1,1,0,0,0-.356.83,1.64,1.64,0,0,0,.16.742,11.308,11.308,0,0,0,.727,1.134L49.2.105a9.3,9.3,0,0,1,.8,1.33,2.632,2.632,0,0,1,.237,1.114,2.324,2.324,0,0,1-.949,1.877,3.492,3.492,0,0,1-2.258.763,5.977,5.977,0,0,1-1.206-.175,7.87,7.87,0,0,0-.907-.175.43.43,0,0,0-.3.093.866.866,0,0,0-.18.278h-.34Zm21.024-.2A5.673,5.673,0,0,0,69.56-.008,5.347,5.347,0,0,0,70.89-3.73a2.458,2.458,0,0,0-.907-2.021,4.038,4.038,0,0,0-2.093-.825Zm.247-8.259h-.33a4.921,4.921,0,0,0-3.7,1.578A4.9,4.9,0,0,0,60.29-1.679,2.983,2.983,0,0,0,61.218.755a4.027,4.027,0,0,0,2.2.835Zm-7.764,4.64A3.719,3.719,0,0,1,58.8-4.359a5.6,5.6,0,0,1,1.9-1.609A12.014,12.014,0,0,1,65.93-7.143l.124-.464a3,3,0,0,0,.124-.7.75.75,0,0,0-.382-.7A4.012,4.012,0,0,0,64.157-9.3l.1-.361h6.228l-.1.361a2.568,2.568,0,0,0-1.588.423,1.882,1.882,0,0,0-.546,1.052l-.217.722a7.518,7.518,0,0,1,3.64,1.134,3.319,3.319,0,0,1,1.5,2.918,4.285,4.285,0,0,1-2.5,3.97,11.246,11.246,0,0,1-5.3,1.248l-.124.464a2.312,2.312,0,0,0-.144.825.8.8,0,0,0,.464.773,3.716,3.716,0,0,0,1.65.32l-.113.361H60.517l.113-.361a3.157,3.157,0,0,0,1.794-.464,1.553,1.553,0,0,0,.4-.526,4.149,4.149,0,0,0,.247-.763l.2-.67A7.174,7.174,0,0,1,59.7,1.105,3.912,3.912,0,0,1,58.5-.132,3.372,3.372,0,0,1,58.011-1.978Z" transform="translate(17.012 20.932)" fill="#12263f"/>
      </g>
      <line id="Línea_571" data-name="Línea 571" x2="18.1" transform="translate(0 20.563)" fill="none" stroke="#12263f" stroke-width="1"/>
    </g>
    <path id="Trazado_898766" data-name="Trazado 898766" d="M-7688.14-9013.675s7.873,9.478,0,14.052" transform="translate(8330.641 11599.918)" fill="none" stroke="#5c6475" stroke-width="2"/>
    <g id="Grupo_1108445" data-name="Grupo 1108445">
      <path id="Trazado_898765" data-name="Trazado 898765" d="M-7638.772-9047.224l-81.665,47.149h81.665" transform="translate(8338.633 11599.991)" fill="none" stroke="#5c6475" stroke-linecap="round" stroke-width="4"/>
      <path id="Trazado_898796" data-name="Trazado 898796" d="M-7663.078-9002.811v47.365" transform="translate(8362.938 11555.369)" fill="none" stroke="#5c6475" stroke-linecap="round" stroke-width="4"/>
    </g>
  </g>
</svg>
