<svg xmlns="http://www.w3.org/2000/svg" width="105" height="91" viewBox="0 0 105 91">
  <g id="Grupo_1108393" data-name="Grupo 1108393" transform="translate(-297.14 -1435)">
    <rect id="Rectángulo_403239" data-name="Rectángulo 403239" width="105" height="91" rx="6" transform="translate(297.14 1435)" fill="#fff"/>
    <g id="Grupo_1108392" data-name="Grupo 1108392" transform="translate(316.942 1450.25)">
      <path id="Trazado_898758" data-name="Trazado 898758" d="M0,19.288a2.791,2.791,0,0,0,1.347-.354,3.1,3.1,0,0,0,.939-1.7L5.7,4.909l.258-1.061Q6,3.658,6.02,3.5a2.181,2.181,0,0,0,.02-.279.931.931,0,0,0-.449-.9,3.986,3.986,0,0,0-1.537-.313V1.563h6.9a9.3,9.3,0,0,1,3.442.531,3.677,3.677,0,0,1,2.462,3.714,4.7,4.7,0,0,1-.979,2.938q-1.891,2.49-6.816,2.49-.6,0-1.19-.048a9.8,9.8,0,0,1-1.136-.156l-1.483,5.36q-.136.49-.2.8a4.137,4.137,0,0,0-.122.843,1.017,1.017,0,0,0,.415.939,3.364,3.364,0,0,0,1.49.313v.449H0Zm6.992-9.223q.258.054.633.1A9.326,9.326,0,0,0,8.6,10.2a7.505,7.505,0,0,0,3.238-.571,4.04,4.04,0,0,0,2.177-4.013,2.876,2.876,0,0,0-.979-2.476,4.308,4.308,0,0,0-2.612-.721,3.02,3.02,0,0,0-.986.122.863.863,0,0,0-.483.626Zm33.629-.9-.34,1.646H26.31l.34-1.646Zm-1.17,5.51-.34,1.646H25.14l.34-1.646Z" transform="translate(0 19.333)" fill="#12263f"/>
      <path id="Trazado_898757" data-name="Trazado 898757" d="M-.039,19.288a2.791,2.791,0,0,0,1.347-.354,3.1,3.1,0,0,0,.939-1.7L5.661,4.909Q5.824,4.3,5.913,3.9A3.271,3.271,0,0,0,6,3.209.938.938,0,0,0,5.5,2.3a4.129,4.129,0,0,0-1.68-.286V1.563H17.687l-.871,4.244-.571-.054q.041-.408.054-.782t.014-.279a1.711,1.711,0,0,0-.973-1.8,12.533,12.533,0,0,0-4.115-.429,6.91,6.91,0,0,0-1.8.136.835.835,0,0,0-.5.6L7.089,9.684a17.134,17.134,0,0,0,4.435-.463,4.425,4.425,0,0,0,1.592-2.245l.517.122-1.9,6.448-.544-.122q.136-.816.163-.993a2.608,2.608,0,0,0,.027-.395,1.109,1.109,0,0,0-.633-1.15,6.824,6.824,0,0,0-2.319-.265H6.831L5.117,16.84q-.082.286-.129.531a2.631,2.631,0,0,0-.048.5.855.855,0,0,0,.231.653,2.579,2.579,0,0,0,1.66.381,12.909,12.909,0,0,0,5.353-.8A9.244,9.244,0,0,0,15.4,15l.449.231-1.741,4.5H-.039ZM1.076,60.631q0-.109.014-.252a1.738,1.738,0,0,1,.054-.292L3.7,50.577H1.634a1.175,1.175,0,0,1,.054-.463.578.578,0,0,1,.272-.19A11.309,11.309,0,0,0,4.09,48.8a13.342,13.342,0,0,0,2.061-2.1l.218-.258a.32.32,0,0,1,.1-.088.262.262,0,0,1,.129-.034.843.843,0,0,1,.19.054.572.572,0,0,1,.048.17.612.612,0,0,1-.007.156l-.775,2.966H8.273l-.163.911H5.8L3.348,59.733a.646.646,0,0,0,.041.469.377.377,0,0,0,.367.224q.354,0,.993-.707.367-.381,1.238-1.51l.354.2-.19.286A10.535,10.535,0,0,1,4.09,61.141a2.821,2.821,0,0,1-1.694.687,1.254,1.254,0,0,1-1.007-.367A1.246,1.246,0,0,1,1.076,60.631Z" transform="translate(46.986 -1.563)" fill="#12263f"/>
      <line id="Línea_569" data-name="Línea 569" x2="19.154" transform="translate(47.015 32.976)" fill="none" stroke="#12263f" stroke-width="1"/>
    </g>
  </g>
</svg>
