<svg xmlns="http://www.w3.org/2000/svg" xmlns:xlink="http://www.w3.org/1999/xlink" width="505" height="102" viewBox="0 0 505 102">
  <defs>
    <clipPath id="clip-path">
      <rect id="Rectángulo_403293" data-name="Rectángulo 403293" width="475.136" height="57.064" transform="translate(0 0)" fill="none"/>
    </clipPath>
  </defs>
  <g id="Grupo_1108397" data-name="Grupo 1108397" transform="translate(-513.14 -1730)">
    <g id="Grupo_1108396" data-name="Grupo 1108396">
      <rect id="Rectángulo_403241" data-name="Rectángulo 403241" width="505" height="102" rx="6" transform="translate(513.14 1730)" fill="#ffb5b4"/>
      <g id="Grupo_1108442" data-name="Grupo 1108442" transform="translate(528.14 1752)">
        <g id="Grupo_1108441" data-name="Grupo 1108441" clip-path="url(#clip-path)">
          <path id="Trazado_898786" data-name="Trazado 898786" d="M0,32.566a2.349,2.349,0,0,0,1.178-.4,2.27,2.27,0,0,0,.616-1.189l2.714-9.94q.077-.3.13-.53a3.767,3.767,0,0,0,.1-.724c0-.353-.1-.577-.3-.67a4.769,4.769,0,0,0-1.308-.227v-.569H14.909l-.941,4.206-.6-.1a4.059,4.059,0,0,0-.508-2.26q-.843-1.156-3.362-1.157a1.893,1.893,0,0,0-1.022.195,1.409,1.409,0,0,0-.438.811L6.714,24.937A8.61,8.61,0,0,0,9.6,24.548,4.345,4.345,0,0,0,11.093,22.6l.616.076-1.643,6.05-.6-.108c.029-.216.048-.4.059-.562s.016-.281.016-.368a1.928,1.928,0,0,0-.573-1.568,4.217,4.217,0,0,0-2.454-.475l-1.46,5.406c-.021.094-.039.18-.054.259a1.36,1.36,0,0,0-.022.238.861.861,0,0,0,.551.876,2.854,2.854,0,0,0,1.038.141v.562H0Zm22.607-7.529a1.918,1.918,0,0,0-.108-.7.761.761,0,0,0-.763-.5q-1.2,0-2.47,2.848a10.6,10.6,0,0,0-1.114,3.86,1.6,1.6,0,0,0,.265.919.809.809,0,0,0,.7.389q1.1.01,2.5-2.919a11.156,11.156,0,0,0,.99-3.9m-7.179,5.5a8.321,8.321,0,0,1,1.946-5q2.011-2.627,4.087-2.627a1.5,1.5,0,0,1,1.243.5,2.866,2.866,0,0,1,.422,1.016l.378-1.178,2.465-.162L24.4,28.265q-.334,1.1-.476,1.687a7.242,7.242,0,0,0-.289,1.585.347.347,0,0,0,.086.27.288.288,0,0,0,.195.076.6.6,0,0,0,.378-.146,2.993,2.993,0,0,0,.411-.416q.108-.118.368-.449t.432-.557l.465.335a11.816,11.816,0,0,1-1.714,2.065,2.46,2.46,0,0,1-1.649.746,1.561,1.561,0,0,1-.984-.378,1.339,1.339,0,0,1-.476-1.114,7.926,7.926,0,0,1,.281-1.373c.029-.029,0,.022-.081.151s-.211.32-.384.573a6.187,6.187,0,0,1-1.378,1.5,2.819,2.819,0,0,1-1.768.616,2.437,2.437,0,0,1-1.633-.66,2.844,2.844,0,0,1-.757-2.231ZM26.867,30a7.212,7.212,0,0,1,1.957-4.811A5.729,5.729,0,0,1,33.149,22.9a2.6,2.6,0,0,1,1.876.611,1.875,1.875,0,0,1,.632,1.378,1.514,1.514,0,0,1-.422,1.13,1.37,1.37,0,0,1-.995.416,1.424,1.424,0,0,1-.843-.3,1.02,1.02,0,0,1-.411-.881,1.091,1.091,0,0,1,.049-.368,2.825,2.825,0,0,1,.211-.4l.1-.162a1.31,1.31,0,0,0,.1-.184A.38.38,0,0,0,33.473,24a.318.318,0,0,0-.173-.287.785.785,0,0,0-.411-.1q-1.189,0-2.26,2.465a9.837,9.837,0,0,0-.951,3.806,2.723,2.723,0,0,0,.281,1.276A1.438,1.438,0,0,0,31.343,32a2.159,2.159,0,0,0,1.368-.524A6.752,6.752,0,0,0,34.011,30l.616.411a11.623,11.623,0,0,1-1.762,2.065,4.208,4.208,0,0,1-2.746.962A3.451,3.451,0,0,1,27.9,32.59,3.154,3.154,0,0,1,26.867,30Zm9.622,1.849a3.31,3.31,0,0,1,.07-.595q.071-.368.287-1.146l1.665-6H37.387v-.76a9.057,9.057,0,0,0,1.838-.973,7.9,7.9,0,0,0,2.206-2.389h.8l-.876,3.211h1.589v.919H41.1l-1.427,5.125q-.2.681-.3,1.135a5.623,5.623,0,0,0-.184,1.07.277.277,0,0,0,.124.27.478.478,0,0,0,.211.065q.313,0,.805-.541a7.6,7.6,0,0,0,.9-1.233l.487.314a13.708,13.708,0,0,1-1.575,2.077,3.041,3.041,0,0,1-2.13.973,1.47,1.47,0,0,1-1.514-1.425c0-.029,0-.059,0-.089ZM49.16,22.937a3.962,3.962,0,0,1,2.011.508,3.184,3.184,0,0,1,1.557,3.016,7.2,7.2,0,0,1-1.792,4.57,5.688,5.688,0,0,1-4.476,2.411,4.2,4.2,0,0,1-2.438-.8,3.057,3.057,0,0,1-1.151-2.7,7.246,7.246,0,0,1,1.784-4.584,5.708,5.708,0,0,1,4.505-2.421m-3.654,8.3a2.321,2.321,0,0,0,.141.9,1.009,1.009,0,0,0,1.016.616q1.385,0,2.487-3.179a14.555,14.555,0,0,0,.919-4.617,2.041,2.041,0,0,0-.13-.811.928.928,0,0,0-.93-.541q-1.588,0-2.67,3.373a14.341,14.341,0,0,0-.833,4.259m8.044,1.892q.974-3.168,1.589-5.449a18.961,18.961,0,0,0,.67-2.919.516.516,0,0,0-.27-.53,2.548,2.548,0,0,0-.93-.119v-.584q1.385-.085,2.335-.227.616-.086,2.1-.368l-1.233,3.925.1.022a20.632,20.632,0,0,1,1.525-2.606q1-1.337,1.931-1.337a1.1,1.1,0,0,1,.957.432,1.622,1.622,0,0,1,.308.962,2.014,2.014,0,0,1-.341,1.146,1.078,1.078,0,0,1-.946.508,1.181,1.181,0,0,1-.5-.108,1.029,1.029,0,0,1-.4-.324l-.205-.259a.614.614,0,0,0-.114-.108.256.256,0,0,0-.157-.043q-.421,0-1.1,1.146a15.984,15.984,0,0,0-1.146,2.335q-.324.822-.8,2.335t-.7,2.173Zm16.9-2.606a1.613,1.613,0,0,0,.254.946.8.8,0,0,0,.687.362q1.308,0,2.541-3.081a11.543,11.543,0,0,0,1.038-3.762,1.8,1.8,0,0,0-.108-.681.755.755,0,0,0-.757-.476q-1.233,0-2.508,2.746a10.024,10.024,0,0,0-1.149,3.946ZM73.7,22.912a2.118,2.118,0,0,1,1.049.249,2.723,2.723,0,0,1,.562.465l.984-3.644a1.135,1.135,0,0,0,.037-.216c.007-.072.011-.14.011-.2a.564.564,0,0,0-.238-.53,1.329,1.329,0,0,0-.67-.141h-.454V18.3l.951-.086q1.115-.1,1.719-.195t1.972-.357L77.162,26.62q-.292,1.048-.778,2.881-.294.995-.487,2.016a.311.311,0,0,0,.081.238.28.28,0,0,0,.2.076q.249,0,.687-.535a10.221,10.221,0,0,0,.762-1.054l.487.357a13.315,13.315,0,0,1-1.427,1.849,2.722,2.722,0,0,1-1.87.973,1.289,1.289,0,0,1-1.35-1.223,1.311,1.311,0,0,1,.009-.226,3.533,3.533,0,0,1,.059-.492q.058-.351.168-.881a9.944,9.944,0,0,1-1.384,1.86,3.167,3.167,0,0,1-2.249.984,2.2,2.2,0,0,1-1.67-.751,3.212,3.212,0,0,1-.7-2.254,8.148,8.148,0,0,1,1.97-4.921q2.012-2.605,4.033-2.6Zm12.1,1.625a1.364,1.364,0,0,0-.141-.643.525.525,0,0,0-.508-.265q-.778,0-1.53,1.254A13.656,13.656,0,0,0,82.287,28.4a4.2,4.2,0,0,0,3.514-3.86M79.136,30a7.261,7.261,0,0,1,1.929-4.767A5.721,5.721,0,0,1,85.436,22.9a2.755,2.755,0,0,1,1.7.508,1.692,1.692,0,0,1,.676,1.438,3.479,3.479,0,0,1-1.576,2.66,8.267,8.267,0,0,1-4.1,1.6c-.043.223-.077.432-.1.627A4.457,4.457,0,0,0,82,30.21a2.424,2.424,0,0,0,.195,1.07,1.33,1.33,0,0,0,1.33.724,2.246,2.246,0,0,0,1.589-.822,7.419,7.419,0,0,0,.908-1.2l.649.378A8.731,8.731,0,0,1,85.107,32.4a3.987,3.987,0,0,1-2.735,1.038,3.406,3.406,0,0,1-2.2-.849A3.156,3.156,0,0,1,79.136,30m13.006,7.1a2.068,2.068,0,0,0,1.054-.243,2.12,2.12,0,0,0,.535-1.141l2.508-9.666q.054-.2.168-.687a3.868,3.868,0,0,0,.114-.622.5.5,0,0,0-.281-.519,2.557,2.557,0,0,0-.919-.119v-.579l1.07-.108q.411-.043,1.346-.178t1.859-.305l-.735,2.26.043.043a9.222,9.222,0,0,1,1.3-1.449,3.248,3.248,0,0,1,2.108-.854,2.332,2.332,0,0,1,1.714.681,2.826,2.826,0,0,1,.687,2.087,8.458,8.458,0,0,1-1.924,5.19q-1.958,2.552-4.108,2.552a2.384,2.384,0,0,1-.8-.108,6.1,6.1,0,0,1-.811-.4l-.389,1.46q-.185.66-.308,1.205a4.078,4.078,0,0,0-.124.784c0,.295.1.483.292.562a4.153,4.153,0,0,0,1.146.162V37.7h-5.54Zm5.168-5.33a.789.789,0,0,0,.265.643,1.035,1.035,0,0,0,.687.222q1.352,0,2.584-2.9a10.819,10.819,0,0,0,1.06-3.989,2.093,2.093,0,0,0-.108-.757.733.733,0,0,0-.746-.5,1.943,1.943,0,0,0-1.265.616,4.576,4.576,0,0,0-1.11,1.828q-.347.93-.854,2.7a12.664,12.664,0,0,0-.508,2.14Zm14.579-8.837a3.962,3.962,0,0,1,2.011.508,3.184,3.184,0,0,1,1.557,3.016,7.2,7.2,0,0,1-1.795,4.573,5.688,5.688,0,0,1-4.476,2.411,4.2,4.2,0,0,1-2.438-.8,3.057,3.057,0,0,1-1.151-2.7,7.246,7.246,0,0,1,1.784-4.584,5.708,5.708,0,0,1,4.508-2.424m-3.653,8.3a2.321,2.321,0,0,0,.141.9,1.009,1.009,0,0,0,1.016.616q1.385,0,2.487-3.179a14.555,14.555,0,0,0,.919-4.617,2.041,2.041,0,0,0-.13-.811.928.928,0,0,0-.93-.541q-1.588,0-2.67,3.373a14.341,14.341,0,0,0-.833,4.259m8.206.616a3.31,3.31,0,0,1,.07-.6q.07-.367.287-1.146l1.665-6h-1.128v-.768a9.057,9.057,0,0,0,1.838-.973,7.891,7.891,0,0,0,2.206-2.389h.8l-.876,3.211h1.589v.919h-1.849l-1.425,5.125q-.2.681-.3,1.135a5.623,5.623,0,0,0-.184,1.07.277.277,0,0,0,.124.27.478.478,0,0,0,.211.065q.313,0,.805-.541a7.6,7.6,0,0,0,.9-1.233l.487.314a13.718,13.718,0,0,1-1.578,2.076,3.041,3.041,0,0,1-2.13.973,1.47,1.47,0,0,1-1.514-1.425c0-.029,0-.059,0-.089Zm13.016-7.316a1.364,1.364,0,0,0-.141-.643.525.525,0,0,0-.508-.265q-.779,0-1.53,1.254a13.656,13.656,0,0,0-1.335,3.514,4.2,4.2,0,0,0,3.514-3.86m-6.66,5.471a7.259,7.259,0,0,1,1.925-4.771,5.72,5.72,0,0,1,4.368-2.335,2.755,2.755,0,0,1,1.7.508,1.692,1.692,0,0,1,.676,1.438,3.477,3.477,0,0,1-1.578,2.66,8.267,8.267,0,0,1-4.1,1.6c-.043.223-.077.432-.1.627a4.457,4.457,0,0,0-.032.476,2.424,2.424,0,0,0,.195,1.07,1.33,1.33,0,0,0,1.33.724,2.246,2.246,0,0,0,1.589-.822,7.419,7.419,0,0,0,.908-1.2l.649.378A8.731,8.731,0,0,1,128.76,32.4a3.987,3.987,0,0,1-2.735,1.038,3.406,3.406,0,0,1-2.2-.849A3.158,3.158,0,0,1,122.8,30Zm9.8,3.125,1.979-7.071q.119-.432.173-.681a3.4,3.4,0,0,0,.108-.649c0-.267-.083-.433-.249-.5a3.358,3.358,0,0,0-.962-.119v-.585q1.385-.085,2.152-.195t2.292-.4l-1.341,4.1.054.032q-.054.054.649-.989a11.953,11.953,0,0,1,1.341-1.692,5.837,5.837,0,0,1,1.314-1.054,2.848,2.848,0,0,1,1.443-.4,1.837,1.837,0,0,1,1.2.4,1.593,1.593,0,0,1,.49,1.3,15.949,15.949,0,0,1-.973,3.719q-.984,2.865-.984,3.07a.373.373,0,0,0,.119.3.366.366,0,0,0,.238.1q.292,0,.865-.735a11.289,11.289,0,0,0,.66-.962l.487.314a11.486,11.486,0,0,1-1.395,1.914,2.951,2.951,0,0,1-2.117,1.01,1.754,1.754,0,0,1-1.065-.346,1.263,1.263,0,0,1-.47-1.092,6.183,6.183,0,0,1,.227-1.384q.227-.907.551-1.87l1.1-3.308.054-.2a.726.726,0,0,0,.022-.173.366.366,0,0,0-.168-.346.71.71,0,0,0-.362-.1q-.681,0-1.514,1.054a12.538,12.538,0,0,0-1.362,2.1,17.08,17.08,0,0,0-.962,2.3q-.389,1.168-.93,3.125ZM144.936,30a7.212,7.212,0,0,1,1.957-4.811,5.729,5.729,0,0,1,4.325-2.281,2.6,2.6,0,0,1,1.876.611,1.875,1.875,0,0,1,.632,1.378,1.514,1.514,0,0,1-.422,1.13,1.37,1.37,0,0,1-.995.416,1.424,1.424,0,0,1-.843-.3,1.02,1.02,0,0,1-.411-.881,1.091,1.091,0,0,1,.049-.368,2.824,2.824,0,0,1,.211-.4l.1-.162a1.309,1.309,0,0,0,.1-.184.361.361,0,0,0,.027-.141.316.316,0,0,0-.173-.287.785.785,0,0,0-.411-.1q-1.189,0-2.26,2.465a9.837,9.837,0,0,0-.951,3.806,2.723,2.723,0,0,0,.281,1.276,1.438,1.438,0,0,0,1.384.832,2.159,2.159,0,0,0,1.368-.524A6.752,6.752,0,0,0,152.08,30l.616.411a11.623,11.623,0,0,1-1.762,2.065,4.208,4.208,0,0,1-2.746.962,3.451,3.451,0,0,1-2.222-.843A3.153,3.153,0,0,1,144.936,30m9.849,1.849a4.408,4.408,0,0,1,.13-.854c.051-.223.126-.519.227-.887l1.334-4.975c.015-.057.027-.115.038-.173a.881.881,0,0,0,.016-.162q0-.443-.281-.551a3.716,3.716,0,0,0-1.027-.141v-.582q.627-.043,1.822-.178t1.692-.233l.951-.184-1.719,6.3q-.216.812-.292,1.124a5.9,5.9,0,0,0-.195,1.038c0,.159.036.261.108.308a.428.428,0,0,0,.238.07q.335,0,.832-.573a8.651,8.651,0,0,0,.876-1.2l.487.314a15.109,15.109,0,0,1-1.654,2.141,2.864,2.864,0,0,1-2.011.908,1.728,1.728,0,0,1-1.087-.373,1.353,1.353,0,0,1-.48-1.137Zm4.281-13.86a1.475,1.475,0,0,1,1.481,1.481,1.446,1.446,0,0,1-.432,1.054,1.417,1.417,0,0,1-1.049.438,1.5,1.5,0,0,1-1.492-1.492,1.417,1.417,0,0,1,.438-1.049,1.445,1.445,0,0,1,1.059-.433Zm8.67,7.044a1.917,1.917,0,0,0-.108-.7.759.759,0,0,0-.768-.5q-1.2,0-2.465,2.843a10.6,10.6,0,0,0-1.114,3.86,1.6,1.6,0,0,0,.265.919.809.809,0,0,0,.7.389q1.1.01,2.5-2.919a11.151,11.151,0,0,0,.99-3.892m-7.179,5.5a8.321,8.321,0,0,1,1.941-5q2.012-2.627,4.087-2.627a1.5,1.5,0,0,1,1.243.5,2.866,2.866,0,0,1,.422,1.016l.378-1.178,2.465-.162-1.568,5.179q-.334,1.1-.476,1.687a7.271,7.271,0,0,0-.292,1.589.347.347,0,0,0,.086.27.288.288,0,0,0,.195.076.6.6,0,0,0,.378-.146,2.993,2.993,0,0,0,.411-.416q.108-.119.368-.449t.432-.557l.465.335a11.816,11.816,0,0,1-1.714,2.065,2.46,2.46,0,0,1-1.649.746,1.561,1.561,0,0,1-.984-.378,1.339,1.339,0,0,1-.476-1.114,7.927,7.927,0,0,1,.281-1.373c.029-.029,0,.022-.081.151s-.211.32-.384.573a6.168,6.168,0,0,1-1.378,1.5,2.819,2.819,0,0,1-1.768.616,2.439,2.439,0,0,1-1.633-.66,2.844,2.844,0,0,1-.754-2.235Zm20.174,6.617a15.832,15.832,0,0,1-2.341-4.146,12.786,12.786,0,0,1-.816-4.525,10.622,10.622,0,0,1,2.476-6.811,18.6,18.6,0,0,1,4.141-3.665l.389.432a19.144,19.144,0,0,0-2.411,2.568,13.264,13.264,0,0,0-1.46,3.206,19.937,19.937,0,0,0-.762,3.054,21.725,21.725,0,0,0-.3,3.725,11.326,11.326,0,0,0,.384,3.146,11.375,11.375,0,0,0,1.2,2.681Zm3.146-4.6a2.349,2.349,0,0,0,1.178-.4,2.27,2.27,0,0,0,.616-1.189l2.71-9.933q.077-.3.13-.53a3.767,3.767,0,0,0,.1-.724c0-.353-.1-.577-.3-.67A4.769,4.769,0,0,0,187,18.886v-.569h11.785l-.941,4.206-.6-.1a4.059,4.059,0,0,0-.508-2.26q-.843-1.156-3.362-1.157a1.893,1.893,0,0,0-1.022.195,1.409,1.409,0,0,0-.438.811l-1.335,4.925a8.61,8.61,0,0,0,2.887-.389,4.345,4.345,0,0,0,1.492-1.946l.616.076-1.646,6.05-.6-.108c.029-.216.048-.4.059-.562s.016-.281.016-.368a1.928,1.928,0,0,0-.573-1.568,4.218,4.218,0,0,0-2.454-.476l-1.46,5.406c-.021.094-.039.18-.054.259a1.352,1.352,0,0,0-.022.238.861.861,0,0,0,.551.876,2.854,2.854,0,0,0,1.038.141v.562h-6.563Zm21.169-7.276c.159.021.3.036.411.043s.234.011.357.011a4.379,4.379,0,0,0,1.73-.27,2.6,2.6,0,0,0,1.049-.887,4.532,4.532,0,0,0,.643-1.508,6.5,6.5,0,0,0,.232-1.53,2.458,2.458,0,0,0-.443-1.519,1.75,1.75,0,0,0-1.492-.589.913.913,0,0,0-.7.211,2.132,2.132,0,0,0-.346.762Zm-6.552,7.276a2.4,2.4,0,0,0,1.168-.389,2.273,2.273,0,0,0,.627-1.2L203,21.037c.058-.223.11-.447.157-.67a2.746,2.746,0,0,0,.07-.541.746.746,0,0,0-.432-.768,4.349,4.349,0,0,0-1.178-.173v-.568h6.357a7.2,7.2,0,0,1,2.681.432,3,3,0,0,1,2.033,3.016,3.7,3.7,0,0,1-1.65,3.163,7.163,7.163,0,0,1-4.276,1.184c-.267,0-.479,0-.638-.011s-.587-.036-1.286-.086l-1.2,4.4-.184.768a1.117,1.117,0,0,0-.043.222c-.007.076-.011.15-.011.222q0,.562.3.708a4.621,4.621,0,0,0,1.319.232v.562h-6.53Zm16.981-14.545a14.764,14.764,0,0,1,2.492,4.53,13.972,13.972,0,0,1,.654,4.108,9.636,9.636,0,0,1-.827,4.157,13.777,13.777,0,0,1-2.07,3.173,18.008,18.008,0,0,1-2.552,2.362q-1.514,1.173-1.157.816l-.389-.443a18.587,18.587,0,0,0,2.227-2.314,12.943,12.943,0,0,0,1.643-3.449,18.441,18.441,0,0,0,.811-3.389,24.475,24.475,0,0,0,.238-3.389,12.259,12.259,0,0,0-.335-2.968,10.43,10.43,0,0,0-1.254-2.86Zm21.353,12.714H225.454l.411-1.979H237.25Zm.984-4.638H226.427l.409-1.953h11.385Z" fill="#12263f"/>
          <path id="Trazado_898787" data-name="Trazado 898787" d="M276.8,7.3c.159.021.3.036.411.043s.234.011.357.011a4.379,4.379,0,0,0,1.73-.27,2.6,2.6,0,0,0,1.049-.887,4.532,4.532,0,0,0,.643-1.508,6.5,6.5,0,0,0,.232-1.53,2.458,2.458,0,0,0-.443-1.519,1.75,1.75,0,0,0-1.492-.589.913.913,0,0,0-.7.211,2.149,2.149,0,0,0-.346.762Zm-6.552,7.277a2.4,2.4,0,0,0,1.168-.389,2.273,2.273,0,0,0,.627-1.2l2.716-9.937c.057-.223.11-.447.157-.67a2.747,2.747,0,0,0,.07-.541.746.746,0,0,0-.432-.768A4.369,4.369,0,0,0,273.371.9V.327h6.357a7.2,7.2,0,0,1,2.681.432,3,3,0,0,1,2.033,3.016,3.7,3.7,0,0,1-1.649,3.165,7.155,7.155,0,0,1-4.276,1.182c-.267,0-.479,0-.638-.011s-.588-.036-1.287-.086l-1.2,4.4-.184.768a1.116,1.116,0,0,0-.043.222c-.007.076-.011.15-.011.222q0,.563.3.708a4.622,4.622,0,0,0,1.319.232v.563h-6.527ZM291.264,4.94a3.962,3.962,0,0,1,2.011.508,3.184,3.184,0,0,1,1.557,3.016,7.2,7.2,0,0,1-1.8,4.576,5.688,5.688,0,0,1-4.48,2.412,4.2,4.2,0,0,1-2.438-.8,3.057,3.057,0,0,1-1.151-2.7,7.239,7.239,0,0,1,1.789-4.587,5.709,5.709,0,0,1,4.507-2.425m-3.654,8.3a2.321,2.321,0,0,0,.141.9,1.009,1.009,0,0,0,1.016.616q1.385,0,2.487-3.179a14.556,14.556,0,0,0,.919-4.617,2.041,2.041,0,0,0-.13-.811.928.928,0,0,0-.93-.541q-1.589,0-2.67,3.373a14.356,14.356,0,0,0-.833,4.266Zm8.206.616a3.312,3.312,0,0,1,.07-.6q.071-.367.287-1.146l1.665-6h-1.125V5.354a9.057,9.057,0,0,0,1.838-.973,7.89,7.89,0,0,0,2.206-2.389h.8L300.681,5.2h1.589v.919h-1.849l-1.427,5.125q-.195.681-.3,1.135a5.621,5.621,0,0,0-.184,1.07.276.276,0,0,0,.124.27.478.478,0,0,0,.211.065q.313,0,.8-.541a7.6,7.6,0,0,0,.9-1.233l.487.314a13.8,13.8,0,0,1-1.58,2.077,3.041,3.041,0,0,1-2.13.973,1.47,1.47,0,0,1-1.514-1.425c0-.029,0-.059,0-.089ZM308.833,6.54a1.364,1.364,0,0,0-.141-.643.525.525,0,0,0-.508-.265q-.778,0-1.53,1.254a13.657,13.657,0,0,0-1.335,3.514,4.2,4.2,0,0,0,3.514-3.86m-6.66,5.471A7.26,7.26,0,0,1,304.1,7.246a5.72,5.72,0,0,1,4.368-2.335,2.755,2.755,0,0,1,1.7.508,1.692,1.692,0,0,1,.676,1.438,3.477,3.477,0,0,1-1.578,2.66,8.267,8.267,0,0,1-4.1,1.6c-.043.223-.077.432-.1.627a4.459,4.459,0,0,0-.032.476,2.424,2.424,0,0,0,.2,1.07,1.33,1.33,0,0,0,1.33.724,2.246,2.246,0,0,0,1.589-.822,7.42,7.42,0,0,0,.908-1.2l.649.378a8.731,8.731,0,0,1-1.568,2.043,3.987,3.987,0,0,1-2.735,1.038,3.406,3.406,0,0,1-2.2-.849,3.159,3.159,0,0,1-1.026-2.588Zm9.8,3.125,1.974-7.068q.119-.432.173-.681a3.4,3.4,0,0,0,.108-.649c0-.267-.083-.433-.249-.5a3.358,3.358,0,0,0-.962-.119V5.54q1.385-.086,2.152-.2t2.288-.4l-1.341,4.1.054.032q-.054.054.649-.989a11.952,11.952,0,0,1,1.341-1.692,5.862,5.862,0,0,1,1.317-1.051,2.863,2.863,0,0,1,1.443-.4,1.836,1.836,0,0,1,1.195.4,1.592,1.592,0,0,1,.492,1.308,15.95,15.95,0,0,1-.973,3.719q-.984,2.865-.984,3.07a.373.373,0,0,0,.119.3.366.366,0,0,0,.238.1q.293,0,.865-.735a11.289,11.289,0,0,0,.66-.962l.487.314a11.487,11.487,0,0,1-1.4,1.914,2.951,2.951,0,0,1-2.108,1.005,1.754,1.754,0,0,1-1.065-.346,1.264,1.264,0,0,1-.472-1.087,6.185,6.185,0,0,1,.227-1.384q.227-.907.551-1.87l1.1-3.308.054-.2A.727.727,0,0,0,319.933,7a.366.366,0,0,0-.168-.346.71.71,0,0,0-.362-.1q-.681,0-1.514,1.054a12.537,12.537,0,0,0-1.362,2.1,17.08,17.08,0,0,0-.962,2.3q-.389,1.168-.93,3.125Zm12.347-3.125A7.212,7.212,0,0,1,326.277,7.2a5.729,5.729,0,0,1,4.32-2.278,2.6,2.6,0,0,1,1.876.611,1.875,1.875,0,0,1,.632,1.378,1.514,1.514,0,0,1-.422,1.13,1.37,1.37,0,0,1-1,.416,1.424,1.424,0,0,1-.843-.3,1.02,1.02,0,0,1-.411-.881,1.091,1.091,0,0,1,.049-.368,2.825,2.825,0,0,1,.211-.4l.1-.162a1.313,1.313,0,0,0,.1-.184.38.38,0,0,0,.027-.141.318.318,0,0,0-.173-.287.785.785,0,0,0-.411-.1q-1.189,0-2.26,2.465a9.837,9.837,0,0,0-.951,3.806,2.723,2.723,0,0,0,.281,1.276,1.438,1.438,0,0,0,1.384.832,2.16,2.16,0,0,0,1.366-.523,6.753,6.753,0,0,0,1.3-1.476l.616.411a11.624,11.624,0,0,1-1.762,2.065,4.208,4.208,0,0,1-2.746.962,3.451,3.451,0,0,1-2.222-.843,3.151,3.151,0,0,1-1.028-2.6Zm9.849,1.849a4.406,4.406,0,0,1,.13-.854c.051-.223.126-.519.227-.887l1.33-4.973c.015-.057.027-.115.038-.173a.883.883,0,0,0,.016-.162q0-.443-.281-.551a3.716,3.716,0,0,0-1.027-.141V5.54q.627-.043,1.822-.178t1.692-.232l.946-.19-1.719,6.3q-.216.812-.292,1.124a5.9,5.9,0,0,0-.2,1.038c0,.159.036.261.108.308a.428.428,0,0,0,.238.07q.334,0,.832-.573a8.651,8.651,0,0,0,.876-1.2l.487.314a15.109,15.109,0,0,1-1.654,2.141,2.864,2.864,0,0,1-2.011.908A1.728,1.728,0,0,1,334.645,15a1.354,1.354,0,0,1-.481-1.134ZM338.45,0A1.427,1.427,0,0,1,339.5.432a1.427,1.427,0,0,1,.432,1.049,1.449,1.449,0,0,1-.437,1.059,1.417,1.417,0,0,1-1.049.438,1.436,1.436,0,0,1-1.053-.438,1.436,1.436,0,0,1-.435-1.056,1.417,1.417,0,0,1,.438-1.049A1.449,1.449,0,0,1,338.446,0Zm8.66,7.049a1.917,1.917,0,0,0-.108-.7.759.759,0,0,0-.768-.5q-1.2,0-2.465,2.843a10.6,10.6,0,0,0-1.114,3.86,1.6,1.6,0,0,0,.265.919.809.809,0,0,0,.7.389q1.1.01,2.5-2.919a11.157,11.157,0,0,0,.986-3.889Zm-7.179,5.5a8.326,8.326,0,0,1,1.946-5.006q2.007-2.621,4.08-2.621a1.5,1.5,0,0,1,1.243.5,2.864,2.864,0,0,1,.425,1.018L348,5.262l2.465-.162L348.9,10.279q-.334,1.1-.476,1.687a7.272,7.272,0,0,0-.292,1.589.347.347,0,0,0,.086.27.288.288,0,0,0,.2.076.6.6,0,0,0,.378-.146,2.99,2.99,0,0,0,.411-.416q.108-.118.368-.449t.432-.557l.465.335a11.841,11.841,0,0,1-1.71,2.06,2.46,2.46,0,0,1-1.649.746,1.561,1.561,0,0,1-.984-.378,1.339,1.339,0,0,1-.476-1.114,7.926,7.926,0,0,1,.281-1.373c.029-.029,0,.022-.081.151s-.211.32-.384.573a6.168,6.168,0,0,1-1.378,1.5,2.819,2.819,0,0,1-1.768.616,2.437,2.437,0,0,1-1.633-.66,2.84,2.84,0,0,1-.758-2.234Zm23.591-2.9L362.7,4.265l-3.276,5.384ZM354.354,14.6a3.024,3.024,0,0,0,.908-.4,4.183,4.183,0,0,0,.962-1.168L364.437.024h.573l2.119,12.66a3.226,3.226,0,0,0,.519,1.562,2.332,2.332,0,0,0,1.33.362v.53h-6.714v-.53a3.352,3.352,0,0,0,1.346-.308,1.034,1.034,0,0,0,.4-.968q0-.249-.119-1.189-.022-.2-.216-1.611H358.9l-1.3,2.249a3.542,3.542,0,0,0-.232.5,1.438,1.438,0,0,0-.1.519c0,.3.092.5.276.584a4.392,4.392,0,0,0,1.151.227v.53H354.35Zm16.5-2.587A7.212,7.212,0,0,1,372.814,7.2a5.729,5.729,0,0,1,4.325-2.281,2.6,2.6,0,0,1,1.876.611,1.875,1.875,0,0,1,.632,1.378,1.514,1.514,0,0,1-.422,1.13,1.37,1.37,0,0,1-.995.416,1.424,1.424,0,0,1-.843-.3,1.02,1.02,0,0,1-.411-.881,1.091,1.091,0,0,1,.049-.368,2.825,2.825,0,0,1,.211-.4l.1-.162a1.313,1.313,0,0,0,.1-.184.38.38,0,0,0,.027-.141.32.32,0,0,0-.173-.287.785.785,0,0,0-.411-.1q-1.189,0-2.26,2.465a9.837,9.837,0,0,0-.951,3.806,2.723,2.723,0,0,0,.281,1.276,1.438,1.438,0,0,0,1.384.832,2.158,2.158,0,0,0,1.368-.524,6.752,6.752,0,0,0,1.3-1.476l.616.411a11.654,11.654,0,0,1-1.76,2.066,4.208,4.208,0,0,1-2.746.962,3.451,3.451,0,0,1-2.222-.843,3.153,3.153,0,0,1-1.032-2.6m9.622,1.849a3.309,3.309,0,0,1,.07-.6q.07-.367.287-1.146l1.665-6h-1.124V5.354a9.057,9.057,0,0,0,1.838-.973,7.891,7.891,0,0,0,2.206-2.389h.8L385.345,5.2h1.589v.919h-1.847l-1.43,5.125q-.2.681-.3,1.135a5.623,5.623,0,0,0-.184,1.07.276.276,0,0,0,.124.27.478.478,0,0,0,.211.065q.314,0,.8-.541a7.605,7.605,0,0,0,.9-1.233l.487.314a13.669,13.669,0,0,1-1.578,2.076,3.041,3.041,0,0,1-2.13.973,1.47,1.47,0,0,1-1.514-1.425c0-.029,0-.059,0-.089Zm6.379,0a4.406,4.406,0,0,1,.13-.854c.051-.223.126-.519.227-.887l1.33-4.973c.015-.057.027-.115.038-.173a.883.883,0,0,0,.016-.162q0-.443-.281-.551a3.716,3.716,0,0,0-1.027-.141V5.54q.627-.043,1.822-.178T390.8,5.13l.952-.19-1.719,6.3q-.216.812-.292,1.124a5.9,5.9,0,0,0-.2,1.038c0,.159.036.261.108.308a.43.43,0,0,0,.238.07q.334,0,.832-.573a8.653,8.653,0,0,0,.876-1.2l.487.314a15.109,15.109,0,0,1-1.654,2.141,2.864,2.864,0,0,1-2.011.908A1.728,1.728,0,0,1,387.34,15a1.35,1.35,0,0,1-.483-1.134ZM391.139,0a1.427,1.427,0,0,1,1.049.432,1.427,1.427,0,0,1,.432,1.049,1.446,1.446,0,0,1-.432,1.054,1.417,1.417,0,0,1-1.049.438,1.436,1.436,0,0,1-1.052-.436,1.437,1.437,0,0,1-.438-1.054,1.417,1.417,0,0,1,.438-1.049A1.444,1.444,0,0,1,391.141,0Zm4.508,15.45h-.562l.076-3.027q.031-1.341-.016-2.46a20.124,20.124,0,0,0-.211-2.179,3.022,3.022,0,0,0-.438-1.416,1.364,1.364,0,0,0-.946-.249V5.54l.714-.108q.789-.131,1.292-.222t1.454-.287a17.453,17.453,0,0,1,.547,3.837q.086,1.331.119,3.535a23.7,23.7,0,0,0,1.568-1.827,4.867,4.867,0,0,0,1.233-2.27,1.494,1.494,0,0,0-.487-.919,1.591,1.591,0,0,1-.487-1.07,1.212,1.212,0,0,1,1.152-1.268h.065a1.313,1.313,0,0,1,.951.4,1.573,1.573,0,0,1,.411,1.173q0,1.426-1.881,3.989a28.59,28.59,0,0,1-3.319,3.762Zm13.979-8.4a1.918,1.918,0,0,0-.108-.7.759.759,0,0,0-.768-.5q-1.2,0-2.465,2.843a10.6,10.6,0,0,0-1.114,3.86,1.6,1.6,0,0,0,.265.919.809.809,0,0,0,.7.389q1.1.01,2.5-2.919a11.16,11.16,0,0,0,.993-3.893Zm-7.179,5.5a8.326,8.326,0,0,1,1.946-5.006Q406.4,4.921,408.48,4.92a1.5,1.5,0,0,1,1.243.5,2.866,2.866,0,0,1,.422,1.016l.378-1.178,2.465-.162-1.568,5.179q-.335,1.1-.476,1.687a7.316,7.316,0,0,0-.287,1.587.347.347,0,0,0,.086.27.288.288,0,0,0,.195.076.6.6,0,0,0,.378-.146,2.992,2.992,0,0,0,.411-.416q.108-.119.368-.449t.432-.557l.465.335a11.816,11.816,0,0,1-1.714,2.065,2.46,2.46,0,0,1-1.649.746,1.561,1.561,0,0,1-.984-.378,1.339,1.339,0,0,1-.476-1.114,7.924,7.924,0,0,1,.281-1.373c.029-.029,0,.022-.081.151s-.211.32-.384.573a6.186,6.186,0,0,1-1.378,1.5,2.819,2.819,0,0,1-1.768.616,2.439,2.439,0,0,1-1.633-.66,2.844,2.844,0,0,1-.756-2.233Zm20.174,6.617a15.831,15.831,0,0,1-2.341-4.146,12.786,12.786,0,0,1-.816-4.525,10.622,10.622,0,0,1,2.476-6.811A18.6,18.6,0,0,1,426.081.023l.389.432a19.145,19.145,0,0,0-2.411,2.568,13.265,13.265,0,0,0-1.46,3.206,19.941,19.941,0,0,0-.762,3.054,21.726,21.726,0,0,0-.3,3.725,11.327,11.327,0,0,0,.384,3.146,11.374,11.374,0,0,0,1.205,2.681Zm9.55-11.87c.159.021.3.036.411.043s.234.011.357.011a4.379,4.379,0,0,0,1.73-.27,2.6,2.6,0,0,0,1.049-.887,4.532,4.532,0,0,0,.643-1.508,6.5,6.5,0,0,0,.232-1.53,2.458,2.458,0,0,0-.443-1.519,1.748,1.748,0,0,0-1.493-.589.913.913,0,0,0-.7.211,2.149,2.149,0,0,0-.346.762Zm-6.552,7.276a2.4,2.4,0,0,0,1.168-.389,2.273,2.273,0,0,0,.627-1.2l2.714-9.936c.057-.223.11-.447.157-.67a2.747,2.747,0,0,0,.07-.541.746.746,0,0,0-.432-.768A4.349,4.349,0,0,0,428.745.9V.327H435.1a7.2,7.2,0,0,1,2.681.432,3,3,0,0,1,2.033,3.016,3.7,3.7,0,0,1-1.65,3.165,7.163,7.163,0,0,1-4.276,1.184c-.267,0-.479,0-.638-.011s-.588-.036-1.287-.086l-1.2,4.4-.184.768a1.118,1.118,0,0,0-.043.222c-.007.076-.011.15-.011.222q0,.563.3.708a4.622,4.622,0,0,0,1.319.232v.561h-6.53ZM442.605.024a14.763,14.763,0,0,1,2.492,4.53,13.971,13.971,0,0,1,.654,4.108,9.636,9.636,0,0,1-.827,4.157,13.777,13.777,0,0,1-2.07,3.173,18.01,18.01,0,0,1-2.552,2.362q-1.514,1.173-1.157.816l-.389-.443a18.59,18.59,0,0,0,2.227-2.314,12.943,12.943,0,0,0,1.643-3.449,18.444,18.444,0,0,0,.811-3.389,24.473,24.473,0,0,0,.238-3.389,12.258,12.258,0,0,0-.335-2.968,10.43,10.43,0,0,0-1.254-2.86Z" fill="#12263f"/>
          <path id="Trazado_898788" data-name="Trazado 898788" d="M264.343,44.665c.159.021.3.036.411.043s.234.011.357.011a4.379,4.379,0,0,0,1.73-.27,2.6,2.6,0,0,0,1.049-.887,4.532,4.532,0,0,0,.643-1.508,6.5,6.5,0,0,0,.232-1.53,2.458,2.458,0,0,0-.443-1.519,1.75,1.75,0,0,0-1.492-.589.913.913,0,0,0-.7.211,2.132,2.132,0,0,0-.346.762Zm-6.552,7.277a2.4,2.4,0,0,0,1.168-.389,2.273,2.273,0,0,0,.627-1.2l2.716-9.937c.057-.223.11-.447.157-.67a2.747,2.747,0,0,0,.07-.541.746.746,0,0,0-.432-.768,4.369,4.369,0,0,0-1.181-.172v-.573h6.357a7.2,7.2,0,0,1,2.681.432,3,3,0,0,1,2.033,3.016,3.7,3.7,0,0,1-1.649,3.165,7.155,7.155,0,0,1-4.276,1.182c-.267,0-.479,0-.638-.011s-.588-.036-1.287-.086l-1.2,4.4-.184.768a1.118,1.118,0,0,0-.043.222c-.007.076-.011.15-.011.222q0,.563.3.708a4.621,4.621,0,0,0,1.319.232v.563h-6.527Zm21.018-9.637a3.967,3.967,0,0,1,2.011.508,3.184,3.184,0,0,1,1.557,3.016,7.2,7.2,0,0,1-1.8,4.576,5.688,5.688,0,0,1-4.48,2.412,4.2,4.2,0,0,1-2.438-.8,3.057,3.057,0,0,1-1.151-2.7A7.238,7.238,0,0,1,274.3,44.73a5.709,5.709,0,0,1,4.507-2.425m-3.654,8.3a2.321,2.321,0,0,0,.141.9,1.009,1.009,0,0,0,1.016.616q1.384,0,2.487-3.179a14.555,14.555,0,0,0,.919-4.617,2.041,2.041,0,0,0-.13-.811.928.928,0,0,0-.93-.541q-1.588,0-2.67,3.373a14.354,14.354,0,0,0-.833,4.266Zm8.206.616a3.312,3.312,0,0,1,.07-.6q.07-.367.287-1.146l1.665-6h-1.125v-.761a9.057,9.057,0,0,0,1.838-.973,7.9,7.9,0,0,0,2.206-2.389h.8l-.876,3.211h1.589v.919h-1.849l-1.427,5.125q-.2.681-.3,1.135a5.623,5.623,0,0,0-.184,1.07.277.277,0,0,0,.124.27.478.478,0,0,0,.211.065q.313,0,.8-.541a7.6,7.6,0,0,0,.9-1.233l.487.314A13.807,13.807,0,0,1,287,51.769a3.041,3.041,0,0,1-2.13.973,1.47,1.47,0,0,1-1.514-1.425c0-.029,0-.059,0-.089ZM296.378,43.9a1.364,1.364,0,0,0-.141-.643.525.525,0,0,0-.508-.265q-.779,0-1.53,1.254a13.655,13.655,0,0,0-1.335,3.514,4.2,4.2,0,0,0,3.514-3.86m-6.66,5.471a7.26,7.26,0,0,1,1.924-4.765,5.72,5.72,0,0,1,4.368-2.335,2.755,2.755,0,0,1,1.7.508,1.692,1.692,0,0,1,.676,1.438,3.477,3.477,0,0,1-1.578,2.66,8.267,8.267,0,0,1-4.1,1.6c-.043.223-.077.432-.1.627a4.459,4.459,0,0,0-.032.476,2.424,2.424,0,0,0,.2,1.07,1.33,1.33,0,0,0,1.33.724,2.246,2.246,0,0,0,1.589-.822,7.418,7.418,0,0,0,.908-1.2l.649.378a8.731,8.731,0,0,1-1.568,2.043,3.987,3.987,0,0,1-2.735,1.038,3.406,3.406,0,0,1-2.2-.849,3.159,3.159,0,0,1-1.026-2.588Zm9.8,3.125,1.974-7.068q.119-.432.173-.681a3.4,3.4,0,0,0,.108-.649c0-.267-.083-.433-.249-.5a3.357,3.357,0,0,0-.962-.119V42.9q1.384-.085,2.152-.195t2.288-.4l-1.341,4.1.054.032q-.054.054.649-.989a11.954,11.954,0,0,1,1.341-1.692,5.841,5.841,0,0,1,1.317-1.051,2.863,2.863,0,0,1,1.443-.4,1.836,1.836,0,0,1,1.2.4,1.592,1.592,0,0,1,.492,1.308,15.949,15.949,0,0,1-.973,3.719Q308.2,50.6,308.2,50.8a.373.373,0,0,0,.119.3.366.366,0,0,0,.238.1q.293,0,.865-.735a11.282,11.282,0,0,0,.66-.962l.487.314a11.487,11.487,0,0,1-1.395,1.914,2.951,2.951,0,0,1-2.108,1A1.753,1.753,0,0,1,306,52.392a1.264,1.264,0,0,1-.472-1.087,6.183,6.183,0,0,1,.227-1.384q.227-.907.551-1.87l1.1-3.308.054-.205a.726.726,0,0,0,.022-.173.366.366,0,0,0-.168-.346.712.712,0,0,0-.362-.1q-.681,0-1.514,1.054a12.539,12.539,0,0,0-1.362,2.1,17.084,17.084,0,0,0-.962,2.3q-.388,1.168-.93,3.125Zm12.347-3.125a7.212,7.212,0,0,1,1.957-4.811,5.729,5.729,0,0,1,4.32-2.278,2.6,2.6,0,0,1,1.876.611,1.875,1.875,0,0,1,.632,1.378,1.514,1.514,0,0,1-.422,1.13,1.37,1.37,0,0,1-.995.416,1.424,1.424,0,0,1-.843-.3,1.02,1.02,0,0,1-.411-.881,1.09,1.09,0,0,1,.049-.368,2.722,2.722,0,0,1,.211-.4l.1-.162a1.418,1.418,0,0,0,.1-.184.38.38,0,0,0,.027-.141.319.319,0,0,0-.173-.287.785.785,0,0,0-.411-.1q-1.189,0-2.26,2.465a9.837,9.837,0,0,0-.951,3.806,2.724,2.724,0,0,0,.281,1.276,1.438,1.438,0,0,0,1.384.832,2.16,2.16,0,0,0,1.366-.523,6.753,6.753,0,0,0,1.3-1.476l.616.411a11.623,11.623,0,0,1-1.762,2.065,4.208,4.208,0,0,1-2.746.962,3.451,3.451,0,0,1-2.222-.843,3.151,3.151,0,0,1-1.028-2.595Zm9.849,1.849a4.41,4.41,0,0,1,.13-.854c.051-.223.126-.519.227-.887l1.33-4.973c.015-.057.027-.115.038-.173a.88.88,0,0,0,.016-.162q0-.442-.281-.551a3.716,3.716,0,0,0-1.027-.141V42.9q.627-.043,1.822-.178t1.692-.232l.946-.19-1.719,6.3q-.216.812-.292,1.124a5.9,5.9,0,0,0-.2,1.038c0,.159.036.261.108.308a.427.427,0,0,0,.238.07q.334,0,.832-.573a8.651,8.651,0,0,0,.876-1.2l.487.314a15.106,15.106,0,0,1-1.654,2.141,2.864,2.864,0,0,1-2.011.908,1.728,1.728,0,0,1-1.087-.373,1.354,1.354,0,0,1-.481-1.134Zm4.281-13.86a1.475,1.475,0,0,1,1.481,1.481,1.449,1.449,0,0,1-.437,1.059,1.417,1.417,0,0,1-1.049.438,1.49,1.49,0,0,1-1.488-1.494,1.417,1.417,0,0,1,.438-1.049,1.449,1.449,0,0,1,1.051-.432Zm8.66,7.049a1.917,1.917,0,0,0-.108-.7.759.759,0,0,0-.768-.5q-1.2,0-2.465,2.843a10.6,10.6,0,0,0-1.114,3.86,1.6,1.6,0,0,0,.265.919.809.809,0,0,0,.7.389q1.1.01,2.5-2.919a11.158,11.158,0,0,0,.986-3.889Zm-7.179,5.5a8.326,8.326,0,0,1,1.946-5.006q2.007-2.621,4.08-2.621a1.5,1.5,0,0,1,1.243.5,2.864,2.864,0,0,1,.425,1.018l.378-1.178,2.465-.162-1.568,5.179q-.335,1.1-.476,1.687a7.27,7.27,0,0,0-.292,1.589.347.347,0,0,0,.086.27.288.288,0,0,0,.2.076.6.6,0,0,0,.378-.146,2.994,2.994,0,0,0,.411-.416q.108-.118.368-.449t.432-.557l.465.335a11.84,11.84,0,0,1-1.71,2.06,2.46,2.46,0,0,1-1.649.746,1.561,1.561,0,0,1-.984-.378,1.339,1.339,0,0,1-.476-1.114,7.927,7.927,0,0,1,.281-1.373c.029-.029,0,.022-.081.151s-.211.32-.384.573a6.187,6.187,0,0,1-1.378,1.5,2.819,2.819,0,0,1-1.768.616,2.437,2.437,0,0,1-1.633-.66,2.84,2.84,0,0,1-.758-2.234Zm23.591-2.9-.822-5.384-3.276,5.384ZM341.9,51.966a3.024,3.024,0,0,0,.908-.4,4.183,4.183,0,0,0,.962-1.168l8.213-13.009h.573l2.119,12.66a3.227,3.227,0,0,0,.519,1.562,2.332,2.332,0,0,0,1.33.362v.53h-6.714v-.53a3.352,3.352,0,0,0,1.346-.308,1.035,1.035,0,0,0,.395-.968q0-.249-.119-1.189-.023-.2-.216-1.611h-4.769l-1.3,2.249a3.542,3.542,0,0,0-.232.5,1.438,1.438,0,0,0-.1.519c0,.3.092.5.276.584a4.392,4.392,0,0,0,1.151.227v.53h-4.346Zm14.152,4.508a2.068,2.068,0,0,0,1.054-.243,2.121,2.121,0,0,0,.535-1.141l2.508-9.666q.054-.2.168-.687a3.868,3.868,0,0,0,.114-.622.5.5,0,0,0-.281-.519,2.557,2.557,0,0,0-.919-.119V42.9l1.07-.108q.411-.043,1.346-.178t1.85-.314l-.735,2.26.043.043a9.223,9.223,0,0,1,1.3-1.449,3.248,3.248,0,0,1,2.106-.854,2.332,2.332,0,0,1,1.714.681,2.827,2.827,0,0,1,.687,2.087,8.458,8.458,0,0,1-1.924,5.19q-1.958,2.552-4.108,2.552a2.384,2.384,0,0,1-.8-.108,6.1,6.1,0,0,1-.811-.4l-.389,1.46q-.185.66-.308,1.205a4.078,4.078,0,0,0-.124.784c0,.295.1.483.292.562a4.148,4.148,0,0,0,1.146.162v.584h-5.536Zm5.168-5.33a.789.789,0,0,0,.265.643,1.035,1.035,0,0,0,.687.222q1.352,0,2.584-2.9a10.819,10.819,0,0,0,1.06-3.989,2.115,2.115,0,0,0-.108-.757.733.733,0,0,0-.746-.5,1.943,1.943,0,0,0-1.265.616,4.574,4.574,0,0,0-1.119,1.826q-.346.93-.854,2.7a12.669,12.669,0,0,0-.508,2.147Zm15.071-6.736a1.918,1.918,0,0,0-.108-.7.759.759,0,0,0-.768-.5q-1.2,0-2.465,2.843a10.6,10.6,0,0,0-1.114,3.86,1.6,1.6,0,0,0,.265.919.809.809,0,0,0,.7.389q1.1.01,2.5-2.919a11.17,11.17,0,0,0,.986-3.883Zm-7.179,5.5a8.326,8.326,0,0,1,1.946-5.006q2.012-2.626,4.087-2.627a1.5,1.5,0,0,1,1.243.5,2.872,2.872,0,0,1,.415,1.03l.378-1.178,2.465-.162-1.568,5.179q-.334,1.1-.476,1.687a7.27,7.27,0,0,0-.292,1.589.347.347,0,0,0,.086.27.288.288,0,0,0,.2.076.6.6,0,0,0,.378-.146,2.99,2.99,0,0,0,.411-.416q.108-.118.368-.449t.432-.557l.465.335A11.815,11.815,0,0,1,377.93,52.1a2.46,2.46,0,0,1-1.649.746,1.561,1.561,0,0,1-.984-.378,1.339,1.339,0,0,1-.476-1.114,7.924,7.924,0,0,1,.281-1.373c.029-.029,0,.022-.081.151s-.211.32-.384.573a6.186,6.186,0,0,1-1.378,1.5,2.819,2.819,0,0,1-1.768.616,2.437,2.437,0,0,1-1.633-.66,2.844,2.844,0,0,1-.751-2.239Zm11.067,2.6q.973-3.168,1.589-5.449a18.966,18.966,0,0,0,.67-2.919.516.516,0,0,0-.27-.53,2.548,2.548,0,0,0-.93-.119V42.9q1.385-.085,2.335-.227.617-.086,2.1-.368l-1.233,3.925.1.022a20.627,20.627,0,0,1,1.524-2.606q1-1.345,1.932-1.346a1.1,1.1,0,0,1,.957.432,1.622,1.622,0,0,1,.308.962,2.014,2.014,0,0,1-.341,1.146,1.078,1.078,0,0,1-.946.508,1.181,1.181,0,0,1-.5-.108,1.029,1.029,0,0,1-.395-.324l-.205-.259a.613.613,0,0,0-.114-.108.256.256,0,0,0-.157-.043q-.421,0-1.1,1.146a15.985,15.985,0,0,0-1.146,2.335q-.324.822-.8,2.335t-.7,2.173Zm15.644-8.6a1.364,1.364,0,0,0-.141-.643.525.525,0,0,0-.508-.265q-.779,0-1.53,1.254a13.619,13.619,0,0,0-1.335,3.514,4.2,4.2,0,0,0,3.514-3.86m-6.66,5.471a7.255,7.255,0,0,1,1.924-4.768,5.72,5.72,0,0,1,4.368-2.335,2.755,2.755,0,0,1,1.7.508,1.692,1.692,0,0,1,.676,1.438,3.477,3.477,0,0,1-1.578,2.66,8.267,8.267,0,0,1-4.1,1.6c-.043.223-.077.432-.1.627a4.459,4.459,0,0,0-.032.476,2.424,2.424,0,0,0,.2,1.07,1.33,1.33,0,0,0,1.33.724,2.248,2.248,0,0,0,1.589-.822,7.476,7.476,0,0,0,.908-1.2l.649.378a8.731,8.731,0,0,1-1.568,2.043,3.987,3.987,0,0,1-2.735,1.038,3.406,3.406,0,0,1-2.2-.849,3.157,3.157,0,0,1-1.025-2.585Zm9.8,3.125,1.979-7.071q.118-.432.173-.681a3.4,3.4,0,0,0,.108-.649c0-.267-.083-.433-.249-.5a3.358,3.358,0,0,0-.962-.119V42.9q1.385-.085,2.152-.195t2.292-.4l-1.341,4.1.054.032q-.054.054.649-.989a11.956,11.956,0,0,1,1.341-1.692,5.846,5.846,0,0,1,1.309-1.056,2.863,2.863,0,0,1,1.443-.4,1.837,1.837,0,0,1,1.2.4,1.592,1.592,0,0,1,.492,1.308,15.949,15.949,0,0,1-.973,3.719q-.984,2.865-.984,3.07a.373.373,0,0,0,.119.3.366.366,0,0,0,.238.1q.292,0,.865-.735a11.289,11.289,0,0,0,.66-.962l.487.314a11.487,11.487,0,0,1-1.395,1.914,2.951,2.951,0,0,1-2.108,1,1.753,1.753,0,0,1-1.065-.346,1.263,1.263,0,0,1-.47-1.092,6.183,6.183,0,0,1,.227-1.384q.227-.907.551-1.87l1.1-3.308.054-.2a.727.727,0,0,0,.022-.173.366.366,0,0,0-.168-.346.71.71,0,0,0-.362-.1q-.681,0-1.514,1.054a12.537,12.537,0,0,0-1.362,2.1,17.08,17.08,0,0,0-.962,2.3q-.389,1.168-.93,3.125Zm12.14-1.273a3.312,3.312,0,0,1,.07-.6q.07-.367.287-1.146l1.665-6H412v-.768a9.057,9.057,0,0,0,1.838-.973,7.9,7.9,0,0,0,2.206-2.389h.8l-.876,3.211h1.589v.919H415.7l-1.427,5.125q-.2.681-.3,1.135a5.623,5.623,0,0,0-.184,1.07.277.277,0,0,0,.124.27.478.478,0,0,0,.211.065q.313,0,.8-.541a7.6,7.6,0,0,0,.9-1.233l.487.314a13.668,13.668,0,0,1-1.578,2.076,3.041,3.041,0,0,1-2.13.973,1.47,1.47,0,0,1-1.514-1.425c0-.029,0-.059,0-.089ZM424.117,43.9a1.364,1.364,0,0,0-.141-.643.525.525,0,0,0-.508-.265q-.778,0-1.53,1.254a13.657,13.657,0,0,0-1.335,3.514,4.2,4.2,0,0,0,3.514-3.86m-6.66,5.471a7.255,7.255,0,0,1,1.924-4.768,5.72,5.72,0,0,1,4.368-2.335,2.755,2.755,0,0,1,1.7.508,1.692,1.692,0,0,1,.676,1.438,3.477,3.477,0,0,1-1.578,2.66,8.267,8.267,0,0,1-4.1,1.6c-.043.223-.077.432-.1.627a4.459,4.459,0,0,0-.032.476,2.424,2.424,0,0,0,.2,1.07,1.33,1.33,0,0,0,1.33.724,2.246,2.246,0,0,0,1.589-.822,7.476,7.476,0,0,0,.908-1.2l.649.378a8.731,8.731,0,0,1-1.568,2.043,3.987,3.987,0,0,1-2.735,1.038,3.406,3.406,0,0,1-2.2-.849,3.156,3.156,0,0,1-1.026-2.585Zm18.563,7.157a15.833,15.833,0,0,1-2.341-4.146,12.786,12.786,0,0,1-.816-4.525,10.622,10.622,0,0,1,2.476-6.811,18.575,18.575,0,0,1,4.141-3.665l.389.432a19.145,19.145,0,0,0-2.411,2.568A13.234,13.234,0,0,0,436,43.6a19.937,19.937,0,0,0-.762,3.054,21.726,21.726,0,0,0-.3,3.725,10.188,10.188,0,0,0,1.589,5.827Zm3.73-3.622.8-4.963.638.043a9.7,9.7,0,0,0,.184,1.546,3.485,3.485,0,0,0,.746,1.438,3.41,3.41,0,0,0,1.13.87,3.2,3.2,0,0,0,1.378.3,2.568,2.568,0,0,0,2.06-.849,2.934,2.934,0,0,0,.73-1.973q0-1.4-2.714-3.525-2.713-2.228-2.714-4.119a4.246,4.246,0,0,1,1.2-3.038,4.385,4.385,0,0,1,3.335-1.254,6.513,6.513,0,0,1,1.222.119,4.986,4.986,0,0,1,.724.184l.562.184c.123.036.249.067.378.092a1.833,1.833,0,0,0,.346.038.946.946,0,0,0,.6-.162,1.6,1.6,0,0,0,.357-.4h.66l-.9,4.433-.584-.076-.076-.724a4.085,4.085,0,0,0-.638-1.762,2.565,2.565,0,0,0-2.27-1.157,2.031,2.031,0,0,0-1.86.93,2.45,2.45,0,0,0-.389,1.33,2.312,2.312,0,0,0,.4,1.341,3.793,3.793,0,0,0,.681.7l1.914,1.568a8.733,8.733,0,0,1,1.73,1.9,4.263,4.263,0,0,1,.714,2.427,4.422,4.422,0,0,1-1.378,3.162,5.056,5.056,0,0,1-3.789,1.411,6.7,6.7,0,0,1-1.216-.114,7.618,7.618,0,0,1-1.2-.33l-.562-.2a3.8,3.8,0,0,0-.389-.135,1.044,1.044,0,0,0-.249-.027.67.67,0,0,0-.524.178,2.528,2.528,0,0,0-.351.622Zm15.039-15.522a14.764,14.764,0,0,1,2.492,4.53,13.972,13.972,0,0,1,.654,4.108,9.636,9.636,0,0,1-.827,4.157,13.777,13.777,0,0,1-2.07,3.173,18.007,18.007,0,0,1-2.552,2.362q-1.514,1.173-1.157.816l-.389-.443a18.587,18.587,0,0,0,2.227-2.314,12.943,12.943,0,0,0,1.643-3.449,18.439,18.439,0,0,0,.811-3.389,24.477,24.477,0,0,0,.238-3.389,12.258,12.258,0,0,0-.335-2.968,10.428,10.428,0,0,0-1.254-2.86Z" fill="#12263f"/>
          <line id="Línea_576" data-name="Línea 576" x2="231.108" transform="translate(244.028 27.594)" fill="none" stroke="#12263f" stroke-width="0.5"/>
        </g>
      </g>
    </g>
  </g>
</svg>
